<?xml version="1.0" encoding="utf-8"?><svg xmlns="http://www.w3.org/2000/svg" xmlns:xlink="http://www.w3.org/1999/xlink" version="1.1" viewBox="0 0 500 500" width="500" height="500"><defs><linearGradient id="g1" x1="0%" y1="0%" x2="100%" y2="100%"><stop offset="0%" stop-color="#A9A9A9" stop-opacity="1"></stop><stop offset="100%" stop-color="#A9A9A9" stop-opacity="1"></stop></linearGradient><symbol id="--crowdsdom--5840f7cb-c2a1-4f2a-931c-f0dd606cdb98" preserveAspectRatio="none" viewBox="0 0 100 100"> <rect x="0" y="0" width="100" height="100"></rect> </symbol><symbol id="--crowdsdom--0bf54cf55f026f3462e045ee278efe5d" preserveAspectRatio="xMidYMid meet" viewBox="0 0 500 500">    <use id="surrounding-icon" xlink:href="#--crowdsdom--f85f2566-3e77-472f-9764-6531220732cf" style="fill:rgb(255, 255, 255);stroke:rgb(255, 255, 255);stroke-width:0;" x="110" y="110" width="280" height="280"></use><use id="header" xlink:href="#726a2323-c5f8-4778-bcb8-2396f8767858" style="fill:rgb(255, 255, 255);stroke:rgb(255, 255, 255);stroke-width:0;" x="135.76" y="195.68" width="227.92000000000002" height="71.64000000000001"></use><use id="slogan" xlink:href="#7e3fe662-530b-4bf8-bd77-5a9f9865506b" style="fill:rgb(255, 255, 255);stroke:rgb(255, 255, 255);stroke-width:0;" x="135.76" y="279.32000000000005" width="227.92000000000002" height="23.880000000000003"></use></symbol><symbol id="--crowdsdom--f85f2566-3e77-472f-9764-6531220732cf" preserveAspectRatio="xMidYMin meet" viewBox="0 0 236.3 236.3"> <g> <path d="M116.1,5.3l-0.9,2.6c-0.1,0.2,0,0.4,0.2,0.5c0.2,0.1,0.4,0.1,0.5,0l2.2-1.6l2.2,1.6c0.1,0.1,0.2,0.1,0.3,0.1
		c0.1,0,0.2,0,0.3-0.1c0.2-0.1,0.2-0.3,0.2-0.5l-0.9-2.6l2.2-1.6c0.2-0.1,0.2-0.3,0.2-0.5c-0.1-0.2-0.2-0.3-0.4-0.3h-2.8l-0.9-2.6
		c-0.1-0.2-0.2-0.3-0.4-0.3c-0.2,0-0.4,0.1-0.4,0.3l-0.9,2.6h-2.8c-0.2,0-0.4,0.1-0.4,0.3c-0.1,0.2,0,0.4,0.2,0.5L116.1,5.3z"></path> <path d="M107.1,0.9c-0.4,0-0.7,0-1.1,0.1c-1.9,0.5-3.4,2.1-4.7,3.8c-0.2,0.2-0.4,0.5-0.6,0.7c-0.5,0.6-1.9,2.1-3.8,2.8
		c-2.2,0.2-4.4-0.8-5.1-1.1C91.5,7,91.2,6.9,91,6.8c-1.9-1-3.8-2-5.8-1.7c-0.4,0.1-0.7,0.2-1.1,0.3c-1.7,0.7-2.7,2.2-2.6,4
		c0.1,1.7,1.2,2.7,1.6,3c0,0,0,0,0.1,0c0.5,0.3,1,0.3,1.5,0.1c1.4-0.6,1.7-3.2,1.8-3.5c0-0.2-0.1-0.4-0.4-0.5
		c-0.2,0-0.4,0.1-0.5,0.4c-0.1,1-0.5,1.6-1,1.8c-0.3,0.1-0.7,0.1-1-0.2c-0.5-0.4-0.7-1.1-0.6-1.8c0.1-1,0.7-1.6,1.7-1.7
		c0,0,0.1,0,0.1,0c2-0.3,4,1,4.7,1.5c0.1,0.1,0.2,0.2,0.3,0.2c2.8,1.5,5.1,1.6,6.8,1.2c1.8-0.1,4.3-0.9,6.6-3.8
		c0-0.1,0.1-0.2,0.2-0.3c0.5-0.7,1.8-2.7,3.8-3.2c0,0,0.1,0,0.1,0c1-0.2,1.8,0.1,2.3,0.9c0.4,0.7,0.5,1.4,0.2,1.9
		c-0.2,0.3-0.5,0.5-0.9,0.5c-0.6,0-1.2-0.5-1.6-1.3c-0.1-0.2-0.4-0.3-0.6-0.2c-0.2,0.1-0.3,0.4-0.2,0.6c0.1,0.3,1.4,2.6,2.9,2.6
		c0.5,0,0.9-0.2,1.3-0.7c0,0,0,0,0,0c0.2-0.4,0.9-1.7,0.3-3.3C110.5,1.9,108.9,0.9,107.1,0.9z"></path> <path d="M120.2,231l0.9-2.6c0.1-0.2,0-0.4-0.2-0.5c-0.2-0.1-0.4-0.1-0.5,0l-2.2,1.6l-2.2-1.6c-0.1-0.1-0.2-0.1-0.3-0.1
		c-0.1,0-0.2,0-0.3,0.1c-0.2,0.1-0.2,0.3-0.2,0.5l0.9,2.6l-2.2,1.6c-0.2,0.1-0.2,0.3-0.2,0.5c0.1,0.2,0.2,0.3,0.4,0.3h2.8l0.9,2.6
		c0.1,0.2,0.2,0.3,0.4,0.3c0.2,0,0.4-0.1,0.4-0.3l0.9-2.6h2.8c0.2,0,0.4-0.1,0.4-0.3c0.1-0.2,0-0.4-0.2-0.5L120.2,231z"></path> <path d="M110.4,229.4c-0.4-0.5-0.8-0.7-1.3-0.7c-1.5,0-2.8,2.3-2.9,2.6c-0.1,0.2,0,0.5,0.2,0.6c0.2,0.1,0.5,0,0.6-0.2
		c0.5-0.8,1.1-1.3,1.6-1.3c0.4,0,0.7,0.2,0.9,0.5c0.3,0.5,0.2,1.2-0.2,1.9c-0.5,0.9-1.3,1.2-2.3,0.9c0,0-0.1,0-0.1,0
		c-2-0.5-3.3-2.4-3.8-3.2c-0.1-0.1-0.2-0.2-0.2-0.3c-2.2-2.7-4.5-3.6-6.3-3.8c-1.7-0.6-4.4-0.9-7.7,0.9c-0.1,0-0.2,0.1-0.3,0.2
		c-0.7,0.5-2.7,1.8-4.7,1.4c0,0-0.1,0-0.1,0c-1-0.2-1.6-0.7-1.7-1.7c-0.1-0.8,0.1-1.4,0.6-1.8c0.3-0.2,0.7-0.3,1-0.2
		c0.5,0.2,0.9,0.9,1,1.8c0,0.2,0.2,0.4,0.5,0.4c0.2,0,0.4-0.2,0.4-0.5c0-0.3-0.3-2.9-1.7-3.5c-0.5-0.2-1-0.1-1.5,0.1c0,0,0,0-0.1,0
		c-0.4,0.3-1.5,1.2-1.6,2.9c-0.1,1.8,1,3.3,2.6,4c0.3,0.1,0.7,0.2,1.1,0.3c2,0.3,3.9-0.7,5.8-1.7c0.3-0.1,0.6-0.3,0.8-0.4
		c0.7-0.3,2.7-1.2,4.8-1.1c2.3,0.5,4.1,2.4,4.7,3.1c0.2,0.2,0.4,0.5,0.6,0.7c1.4,1.6,2.8,3.3,4.7,3.8c0.4,0.1,0.7,0.1,1.1,0.1
		c1.8,0,3.3-1,4-2.7C111.4,231.2,110.7,229.8,110.4,229.4C110.4,229.4,110.4,229.4,110.4,229.4z"></path> <path d="M236.1,117.7l-2.6-0.9v-2.8c0-0.2-0.1-0.4-0.3-0.4c-0.2-0.1-0.4,0-0.5,0.2l-1.6,2.2l-2.6-0.9c-0.2-0.1-0.4,0-0.5,0.2
		c-0.1,0.2-0.1,0.4,0,0.5l1.6,2.2l-1.6,2.2c-0.1,0.1-0.1,0.2-0.1,0.3c0,0.1,0,0.2,0.1,0.3c0.1,0.2,0.3,0.2,0.5,0.2l2.6-0.9l1.6,2.2
		c0.1,0.2,0.3,0.2,0.5,0.2c0.2-0.1,0.3-0.2,0.3-0.4v-2.8l2.6-0.9c0.2-0.1,0.3-0.2,0.3-0.4C236.3,118,236.2,117.8,236.1,117.7z"></path> <path d="M232.8,125.6c-1.6-0.6-3,0.1-3.3,0.3c0,0,0,0,0,0c-0.5,0.4-0.7,0.8-0.7,1.3c0,1.5,2.3,2.8,2.6,2.9c0.2,0.1,0.5,0,0.6-0.2
		c0.1-0.2,0-0.5-0.2-0.6c-0.8-0.5-1.3-1.1-1.3-1.6c0-0.4,0.2-0.7,0.5-0.9c0.5-0.3,1.2-0.2,1.9,0.2c0.9,0.5,1.2,1.3,0.9,2.3
		c0,0,0,0.1,0,0.1c-0.5,2-2.4,3.3-3.2,3.8c-0.1,0.1-0.2,0.2-0.3,0.2c-2.7,2.2-3.6,4.5-3.8,6.3c-0.6,1.7-0.9,4.4,0.9,7.7
		c0,0.1,0.1,0.2,0.2,0.3c0.5,0.7,1.8,2.7,1.4,4.7c0,0,0,0.1,0,0.1c-0.2,1-0.7,1.6-1.7,1.7c-0.8,0.1-1.4-0.1-1.8-0.6
		c-0.2-0.3-0.3-0.7-0.2-1c0.2-0.5,0.9-0.9,1.8-1c0.2,0,0.4-0.2,0.4-0.5c0-0.2-0.2-0.4-0.5-0.4c-0.3,0-2.9,0.3-3.5,1.7
		c-0.2,0.5-0.1,1,0.1,1.5c0,0,0,0,0,0.1c0.3,0.4,1.2,1.5,2.9,1.6c1.8,0.1,3.3-1,4-2.6c0.1-0.3,0.2-0.7,0.3-1.1
		c0.3-2-0.7-3.9-1.7-5.8c-0.1-0.3-0.3-0.6-0.4-0.8c-0.3-0.7-1.2-2.7-1.1-4.8c0.5-2.3,2.4-4.1,3.1-4.7c0.2-0.2,0.5-0.4,0.7-0.6
		c1.6-1.4,3.3-2.8,3.8-4.7c0.1-0.4,0.1-0.7,0.1-1.1C235.5,127.7,234.4,126.2,232.8,125.6z"></path> <path d="M2.9,122.2c0,0.2,0.1,0.4,0.3,0.4c0.2,0.1,0.4,0,0.5-0.2l1.6-2.2l2.6,0.9c0.2,0.1,0.4,0,0.5-0.2c0.1-0.2,0.1-0.4,0-0.5
		l-1.6-2.2l1.6-2.2c0.1-0.1,0.1-0.2,0.1-0.3c0-0.1,0-0.2-0.1-0.3c-0.1-0.2-0.3-0.2-0.5-0.2l-2.6,0.9l-1.6-2.2
		c-0.1-0.2-0.3-0.2-0.5-0.2c-0.2,0.1-0.3,0.2-0.3,0.4v2.8l-2.6,0.9C0.1,117.8,0,118,0,118.2c0,0.2,0.1,0.4,0.3,0.4l2.6,0.9V122.2z"></path> <path d="M3.6,110.8c1.6,0.6,3-0.1,3.3-0.3c0,0,0,0,0,0c0.5-0.4,0.7-0.8,0.7-1.3c0-1.5-2.3-2.8-2.6-2.9c-0.2-0.1-0.5,0-0.6,0.2
		c-0.1,0.2,0,0.5,0.2,0.6c0.8,0.5,1.3,1.1,1.3,1.6c0,0.4-0.2,0.7-0.5,0.9c-0.5,0.3-1.2,0.2-1.9-0.2c-0.9-0.5-1.2-1.3-0.9-2.3
		c0,0,0-0.1,0-0.1c0.5-2,2.4-3.3,3.2-3.8c0.1-0.1,0.2-0.2,0.3-0.2c2.7-2.2,3.6-4.5,3.8-6.3c0.6-1.7,0.9-4.4-0.9-7.7
		c0-0.1-0.1-0.2-0.2-0.3c-0.5-0.7-1.8-2.7-1.4-4.7c0,0,0-0.1,0-0.1c0.2-1,0.7-1.6,1.7-1.7c0.8-0.1,1.4,0.1,1.8,0.6
		c0.2,0.3,0.3,0.7,0.2,1c-0.2,0.5-0.9,0.9-1.8,1c-0.2,0-0.4,0.2-0.4,0.5c0,0.2,0.2,0.4,0.5,0.4c0.3,0,2.9-0.3,3.5-1.7
		c0.2-0.5,0.1-1-0.1-1.5c0,0,0,0,0-0.1c-0.3-0.4-1.2-1.5-2.9-1.6c-1.8-0.1-3.3,1-4,2.6c-0.1,0.3-0.2,0.7-0.3,1.1
		c-0.3,2,0.7,3.9,1.7,5.8c0.1,0.3,0.3,0.6,0.4,0.8c0.3,0.7,1.2,2.7,1.1,4.8c-0.5,2.3-2.4,4.1-3.1,4.7c-0.2,0.2-0.5,0.4-0.7,0.6
		c-1.6,1.4-3.3,2.8-3.8,4.7c-0.1,0.4-0.1,0.7-0.1,1.1C0.9,108.6,1.9,110.1,3.6,110.8z"></path> <path d="M194.1,38.2c-0.2,0.1-0.3,0.3-0.2,0.5c0,0.2,0.2,0.3,0.4,0.4l2.7,0.4l0.4,2.7c0,0.1,0.1,0.2,0.1,0.2
		c0.1,0.1,0.1,0.1,0.2,0.1c0.2,0,0.4-0.1,0.5-0.2l1.3-2.5l2.7,0.4c0.2,0,0.4-0.1,0.4-0.2c0.1-0.2,0.1-0.4-0.1-0.5l-2-2l1.3-2.5
		c0.1-0.2,0.1-0.4-0.1-0.5c-0.1-0.1-0.3-0.2-0.5-0.1l-2.5,1.3l-2-2c-0.1-0.1-0.3-0.2-0.5-0.1c-0.2,0.1-0.3,0.3-0.2,0.5l0.4,2.7
		L194.1,38.2z"></path> <path d="M202.3,45c-0.1,0.6,0.1,1.1,0.4,1.4c1.1,1.1,3.6,0.4,3.9,0.3c0.2-0.1,0.4-0.3,0.3-0.5c-0.1-0.2-0.3-0.4-0.5-0.3
		c-0.9,0.2-1.7,0.1-2.1-0.2c-0.2-0.2-0.3-0.6-0.2-1c0.2-0.6,0.7-1,1.5-1.2c1-0.2,1.7,0.1,2.3,0.9c0,0,0,0,0.1,0.1
		c1.1,1.7,0.6,4,0.5,4.9c0,0.2-0.1,0.3-0.1,0.3c-0.4,3.4,0.6,5.7,1.8,7.1c0.8,1.7,2.5,3.8,6.1,4.8c0.1,0,0.2,0,0.3,0.1
		c0.9,0.2,3.2,0.6,4.4,2.3c0,0,0,0,0,0.1c0.6,0.8,0.6,1.6,0,2.4c-0.5,0.6-1.1,0.9-1.7,0.9c-0.4,0-0.7-0.3-0.8-0.6
		c-0.2-0.5,0-1.2,0.6-2c0.1-0.2,0.1-0.4-0.1-0.6c-0.2-0.1-0.4-0.1-0.6,0.1c-0.2,0.2-1.8,2.3-1.3,3.7c0.2,0.5,0.6,0.8,1.2,1
		c0,0,0,0,0.1,0c0.4,0.1,2,0.2,3.2-1c1.3-1.2,1.7-3,1-4.7c-0.1-0.3-0.3-0.7-0.5-1c-1.2-1.6-3.3-2.3-5.3-2.9
		c-0.3-0.1-0.6-0.2-0.9-0.3c-0.7-0.2-2.8-1.1-4.2-2.6c-1.2-2-1.2-4.6-1.1-5.5c0-0.3,0-0.6,0.1-0.9c0.2-2.1,0.4-4.3-0.7-6
		c-0.2-0.3-0.4-0.6-0.7-0.9c-1.3-1.3-3.1-1.6-4.7-0.9C202.9,43.1,202.4,44.5,202.3,45C202.3,45,202.3,45,202.3,45z"></path> <path d="M42.3,198.2c0.2-0.1,0.3-0.3,0.2-0.5c0-0.2-0.2-0.3-0.4-0.4l-2.7-0.4l-0.4-2.7c0-0.1-0.1-0.2-0.1-0.2
		c-0.1-0.1-0.1-0.1-0.2-0.1c-0.2,0-0.4,0.1-0.4,0.2l-1.3,2.5l-2.7-0.4c-0.2,0-0.4,0.1-0.4,0.2c-0.1,0.2-0.1,0.4,0.1,0.5l2,2
		l-1.3,2.5c-0.1,0.2-0.1,0.4,0.1,0.5c0.1,0.1,0.3,0.2,0.5,0.1l2.5-1.3l2,2c0.1,0.1,0.3,0.2,0.5,0.1c0.2-0.1,0.3-0.3,0.2-0.4
		l-0.4-2.7L42.3,198.2z"></path> <path d="M34,191.3c0.1-0.6-0.1-1.1-0.4-1.4c-1.1-1.1-3.6-0.4-3.9-0.3c-0.2,0.1-0.4,0.3-0.3,0.5c0.1,0.2,0.3,0.4,0.5,0.3
		c0.9-0.2,1.7-0.1,2.1,0.2c0.2,0.2,0.3,0.6,0.2,1c-0.2,0.6-0.7,1-1.5,1.2c-1,0.2-1.7-0.1-2.3-0.9c0,0,0,0-0.1-0.1
		c-1.1-1.7-0.6-4-0.5-4.9c0-0.2,0.1-0.3,0.1-0.3c0.4-3.4-0.6-5.7-1.8-7.1c-0.8-1.7-2.5-3.8-6.1-4.8c-0.1,0-0.2,0-0.3-0.1
		c-0.9-0.2-3.2-0.6-4.4-2.3c0,0,0,0,0-0.1c-0.6-0.8-0.6-1.6,0-2.4c0.5-0.6,1.1-0.9,1.7-0.9c0.4,0,0.7,0.3,0.8,0.6
		c0.2,0.5,0,1.2-0.6,2c-0.1,0.2-0.1,0.4,0.1,0.6c0.2,0.1,0.4,0.1,0.6-0.1c0.2-0.2,1.8-2.3,1.3-3.7c-0.2-0.5-0.6-0.8-1.2-1
		c0,0,0,0-0.1,0c-0.4-0.1-2-0.2-3.2,1c-1.3,1.2-1.7,3-1,4.7c0.1,0.3,0.3,0.7,0.5,1c1.2,1.6,3.3,2.3,5.3,2.9c0.3,0.1,0.6,0.2,0.9,0.3
		c0.7,0.2,2.8,1.1,4.2,2.6c1.2,2,1.2,4.6,1.1,5.5c0,0.3,0,0.6-0.1,0.9c-0.2,2.1-0.4,4.3,0.7,6c0.2,0.3,0.4,0.6,0.7,0.9
		c1.3,1.3,3.1,1.6,4.7,0.9C33.5,193.3,33.9,191.8,34,191.3C34,191.4,34,191.3,34,191.3z"></path> <path d="M202.2,196.1l-2.7,0.4l-1.3-2.5c-0.1-0.2-0.3-0.3-0.4-0.2c-0.2,0-0.3,0.2-0.4,0.4l-0.4,2.7l-2.7,0.4
		c-0.1,0-0.2,0.1-0.2,0.1c-0.1,0.1-0.1,0.1-0.1,0.2c0,0.2,0.1,0.4,0.2,0.5l2.5,1.3l-0.4,2.7c0,0.2,0.1,0.4,0.2,0.4
		c0.2,0.1,0.4,0.1,0.5-0.1l2-2l2.5,1.3c0.2,0.1,0.4,0.1,0.5-0.1c0.1-0.1,0.2-0.3,0.1-0.5l-1.3-2.5l2-2c0.1-0.1,0.2-0.3,0.1-0.5
		C202.5,196.1,202.3,196.1,202.2,196.1z"></path> <path d="M191.4,202.3C191.4,202.3,191.3,202.3,191.4,202.3c-0.7-0.1-1.1,0.1-1.5,0.4c-1.1,1.1-0.4,3.6-0.3,3.9
		c0.1,0.2,0.3,0.4,0.5,0.3c0.2-0.1,0.4-0.3,0.3-0.5c-0.2-0.9-0.1-1.7,0.2-2.1c0.2-0.2,0.6-0.3,1-0.2c0.6,0.2,1,0.7,1.2,1.5
		c0.2,1-0.1,1.7-0.9,2.3c0,0,0,0-0.1,0.1c-1.7,1.1-4,0.6-4.9,0.5c-0.2,0-0.3-0.1-0.3-0.1c-3.4-0.4-5.7,0.6-7.1,1.8
		c-1.7,0.8-3.8,2.5-4.8,6.1c0,0.1,0,0.2-0.1,0.3c-0.2,0.9-0.6,3.2-2.3,4.4c0,0,0,0-0.1,0c-0.8,0.6-1.6,0.6-2.4,0
		c-0.6-0.5-0.9-1.1-0.9-1.7c0-0.4,0.3-0.7,0.6-0.8c0.5-0.2,1.2,0,2,0.6c0.2,0.1,0.4,0.1,0.6-0.1c0.1-0.2,0.1-0.4-0.1-0.6
		c-0.2-0.2-2.3-1.8-3.7-1.3c-0.5,0.2-0.8,0.6-1,1.2c0,0,0,0,0,0.1c-0.1,0.4-0.2,1.9,1,3.2c1.2,1.3,3,1.7,4.7,1
		c0.3-0.1,0.7-0.3,1-0.5c1.6-1.2,2.3-3.3,2.9-5.3c0.1-0.3,0.2-0.6,0.3-0.9c0.2-0.7,1.1-2.8,2.6-4.2c2-1.2,4.6-1.2,5.5-1.1
		c0.3,0,0.6,0,0.9,0.1c2.1,0.2,4.3,0.4,6-0.7c0.3-0.2,0.6-0.4,0.9-0.7c1.3-1.3,1.6-3.1,0.9-4.7C193.3,202.9,191.8,202.4,191.4,202.3
		z"></path> <path d="M34.2,40.3l2.7-0.4l1.3,2.5c0.1,0.2,0.3,0.3,0.5,0.2c0.2,0,0.3-0.2,0.4-0.4l0.4-2.7l2.7-0.4c0.1,0,0.2-0.1,0.2-0.1
		c0.1-0.1,0.1-0.1,0.1-0.2c0-0.2-0.1-0.4-0.2-0.5l-2.5-1.3l0.4-2.7c0-0.2-0.1-0.4-0.2-0.4c-0.2-0.1-0.4-0.1-0.5,0.1l-2,2l-2.5-1.3
		c-0.2-0.1-0.4-0.1-0.5,0.1c-0.1,0.1-0.2,0.3-0.1,0.5l1.3,2.5l-2,2c-0.1,0.1-0.2,0.3-0.1,0.5C33.8,40.2,34,40.3,34.2,40.3z"></path> <path d="M166.3,13.4l-2.5-1.1l0.2-2.7c0-0.2-0.1-0.4-0.3-0.4c-0.2-0.1-0.4,0-0.5,0.1l-1.8,2.1l-2.5-1.1c-0.2-0.1-0.4,0-0.5,0.1
		c-0.1,0.1-0.1,0.3,0,0.5l1.4,2.4l-1.8,2.1c-0.1,0.1-0.1,0.3,0,0.5c0.1,0.2,0.3,0.2,0.5,0.2l2.7-0.6l1.4,2.4c0,0.1,0.1,0.1,0.2,0.2
		c0.1,0,0.2,0,0.3,0c0.2,0,0.3-0.2,0.3-0.4l0.2-2.7l2.7-0.6c0.2,0,0.3-0.2,0.3-0.4C166.6,13.6,166.4,13.4,166.3,13.4z"></path> <path d="M153.2,5.7c-0.3-0.1-0.7-0.2-1.1-0.3c-2-0.3-3.9,0.7-5.8,1.7c-0.3,0.1-0.6,0.3-0.8,0.4c-0.7,0.3-2.7,1.2-4.8,1.1
		c-2.3-0.5-4.1-2.4-4.7-3.1c-0.2-0.2-0.4-0.5-0.6-0.7c-1.4-1.6-2.8-3.3-4.7-3.8c-0.4-0.1-0.7-0.1-1.1-0.1c-1.8,0-3.3,1-4,2.7
		c-0.6,1.6,0.1,3,0.3,3.3c0,0,0,0,0,0c0.4,0.5,0.8,0.7,1.3,0.7c1.5,0,2.8-2.3,2.9-2.6c0.1-0.2,0-0.5-0.2-0.6c-0.2-0.1-0.5,0-0.6,0.2
		C129,5.5,128.4,6,127.8,6c-0.4,0-0.7-0.2-0.9-0.5c-0.3-0.5-0.2-1.2,0.2-1.9c0.5-0.9,1.3-1.2,2.3-0.9c0,0,0.1,0,0.1,0
		c2,0.5,3.3,2.4,3.8,3.2c0.1,0.1,0.2,0.2,0.2,0.3c2.2,2.7,4.5,3.6,6.3,3.8c1.7,0.6,4.4,0.9,7.7-0.9c0.1,0,0.2-0.1,0.3-0.2
		c0.7-0.5,2.7-1.8,4.7-1.4c0,0,0.1,0,0.1,0c1,0.2,1.6,0.7,1.7,1.7c0.1,0.8-0.1,1.4-0.6,1.8c-0.3,0.2-0.7,0.3-1,0.2
		c-0.5-0.2-0.9-0.9-1-1.8c0-0.2-0.2-0.4-0.5-0.4c-0.2,0-0.4,0.2-0.4,0.5c0,0.3,0.3,2.9,1.7,3.5c0.5,0.2,1,0.1,1.5-0.1c0,0,0,0,0.1,0
		c0.4-0.3,1.5-1.2,1.6-2.9C155.9,7.9,154.9,6.4,153.2,5.7z"></path> <path d="M168.2,18.5c0.2,0.6,0.5,1,1,1.2c1.4,0.6,3.5-1,3.7-1.2c0.2-0.1,0.2-0.4,0.1-0.6c-0.1-0.2-0.4-0.2-0.6-0.1
		c-0.8,0.6-1.5,0.8-2,0.6c-0.3-0.1-0.5-0.4-0.6-0.8c-0.1-0.6,0.3-1.2,0.9-1.7c0.8-0.6,1.6-0.6,2.4,0c0,0,0,0,0.1,0
		c1.7,1.2,2.1,3.5,2.3,4.4c0,0.2,0.1,0.3,0.1,0.3c0.9,3,2.5,4.7,3.9,5.7c1.4,1.2,3.7,2.4,7.4,2c0.1,0,0.2,0,0.3-0.1
		c0.9-0.2,3.2-0.6,4.9,0.5c0,0,0,0,0.1,0.1c0.9,0.5,1.2,1.3,0.9,2.3c-0.2,0.8-0.6,1.3-1.2,1.5c-0.4,0.1-0.7,0-1-0.2
		c-0.4-0.4-0.5-1.2-0.2-2.1c0.1-0.2-0.1-0.5-0.3-0.5c-0.2-0.1-0.5,0.1-0.5,0.3c-0.1,0.3-0.8,2.8,0.3,3.9c0.4,0.4,0.8,0.5,1.4,0.4
		c0,0,0,0,0.1,0c0.4-0.1,1.9-0.6,2.6-2.1c0.7-1.6,0.4-3.4-0.9-4.7c-0.3-0.3-0.5-0.5-0.9-0.7c-1.7-1-3.9-0.9-6-0.7
		c-0.3,0-0.6,0.1-0.9,0.1c-0.7,0.1-2.8,0.1-4.7-0.7c-1.7-1.4-2.6-3.6-2.8-4.4c-0.1-0.3-0.2-0.6-0.3-0.9c-0.6-2-1.3-4.1-2.9-5.3
		c-0.3-0.2-0.6-0.4-1-0.5c-1.7-0.7-3.5-0.3-4.7,1C168,16.5,168.1,18,168.2,18.5C168.2,18.5,168.2,18.5,168.2,18.5z"></path> <path d="M78,220.3l-2.7,0.6l-1.4-2.4c0-0.1-0.1-0.1-0.2-0.2c-0.1,0-0.2,0-0.3,0c-0.2,0-0.3,0.2-0.3,0.4l-0.2,2.7l-2.7,0.6
		c-0.2,0-0.3,0.2-0.3,0.4c0,0.2,0.1,0.4,0.3,0.4l2.5,1.1l-0.2,2.7c0,0.2,0.1,0.4,0.3,0.4c0.2,0.1,0.4,0,0.5-0.1l1.8-2.1l2.5,1.1
		c0.2,0.1,0.4,0,0.5-0.1c0.1-0.1,0.1-0.3,0-0.5l-1.4-2.4l1.8-2.1c0.1-0.1,0.1-0.3,0-0.5C78.3,220.4,78.1,220.3,78,220.3z"></path> <path d="M68.1,217.8c-0.2-0.6-0.5-1-1-1.2c-1.4-0.6-3.5,1-3.7,1.2c-0.2,0.1-0.2,0.4-0.1,0.6c0.1,0.2,0.4,0.2,0.6,0.1
		c0.8-0.6,1.5-0.8,2-0.6c0.3,0.1,0.5,0.4,0.6,0.8c0.1,0.6-0.3,1.2-0.9,1.7c-0.8,0.6-1.6,0.6-2.4,0c0,0,0,0-0.1,0
		c-1.7-1.2-2.1-3.5-2.3-4.4c0-0.2-0.1-0.3-0.1-0.3c-0.9-3-2.5-4.7-3.9-5.7c-1.4-1.2-3.7-2.4-7.4-2c-0.1,0-0.2,0-0.3,0.1
		c-0.9,0.2-3.2,0.6-4.9-0.5c0,0,0,0-0.1-0.1c-0.9-0.5-1.2-1.3-0.9-2.3c0.2-0.8,0.6-1.3,1.2-1.5c0.4-0.1,0.7,0,1,0.2
		c0.4,0.4,0.5,1.2,0.2,2.1c-0.1,0.2,0.1,0.5,0.3,0.5c0.2,0.1,0.5-0.1,0.5-0.3c0.1-0.3,0.8-2.8-0.3-3.9c-0.4-0.4-0.8-0.5-1.4-0.4
		c0,0,0,0-0.1,0c-0.4,0.1-1.9,0.6-2.6,2.1c-0.7,1.6-0.4,3.4,0.9,4.7c0.3,0.3,0.5,0.5,0.9,0.7c1.7,1,3.9,0.9,6,0.7
		c0.3,0,0.6-0.1,0.9-0.1c0.7-0.1,2.8-0.1,4.7,0.7c1.7,1.4,2.6,3.6,2.8,4.4c0.1,0.3,0.2,0.6,0.3,0.9c0.6,2,1.3,4.1,2.9,5.3
		c0.3,0.2,0.6,0.4,1,0.5c1.7,0.7,3.5,0.3,4.7-1C68.3,219.8,68.2,218.3,68.1,217.8C68.2,217.8,68.1,217.8,68.1,217.8z"></path> <path d="M225,161.4l1.1-2.5c0.1-0.2,0-0.4-0.1-0.5c-0.1-0.1-0.3-0.1-0.5,0l-2.4,1.4L221,158c-0.1-0.1-0.3-0.1-0.5,0
		c-0.2,0.1-0.2,0.3-0.2,0.5l0.6,2.7l-2.4,1.4c-0.1,0-0.1,0.1-0.2,0.2c0,0.1,0,0.2,0,0.3c0,0.2,0.2,0.3,0.4,0.3l2.7,0.2l0.6,2.7
		c0,0.2,0.2,0.3,0.4,0.3c0.2,0,0.4-0.1,0.4-0.3l1.1-2.5l2.7,0.2c0.2,0,0.4-0.1,0.4-0.3c0.1-0.2,0-0.4-0.1-0.5L225,161.4z"></path> <path d="M217.9,168.2C217.8,168.2,217.8,168.2,217.9,168.2c-0.6,0.2-1,0.5-1.2,1c-0.6,1.4,1,3.5,1.2,3.7c0.1,0.2,0.4,0.2,0.6,0.1
		c0.2-0.1,0.2-0.4,0.1-0.6c-0.6-0.8-0.8-1.5-0.6-2c0.1-0.3,0.4-0.5,0.8-0.6c0.6-0.1,1.2,0.3,1.7,0.9c0.6,0.8,0.6,1.6,0,2.4
		c0,0,0,0,0,0.1c-1.2,1.7-3.5,2.1-4.4,2.3c-0.2,0-0.3,0.1-0.3,0.1c-3,0.9-4.7,2.5-5.7,3.9c-1.2,1.4-2.4,3.7-2,7.4
		c0,0.1,0,0.2,0.1,0.3c0.2,0.9,0.6,3.2-0.5,4.9c0,0,0,0-0.1,0.1c-0.5,0.9-1.3,1.2-2.3,0.9c-0.8-0.2-1.3-0.6-1.5-1.2
		c-0.1-0.4,0-0.7,0.2-1c0.4-0.4,1.2-0.5,2.1-0.2c0.2,0.1,0.5-0.1,0.5-0.3c0.1-0.2-0.1-0.5-0.3-0.5c-0.3-0.1-2.8-0.8-3.9,0.3
		c-0.4,0.4-0.5,0.8-0.4,1.4c0,0,0,0,0,0.1c0.1,0.4,0.6,1.9,2.1,2.6c1.6,0.7,3.4,0.4,4.7-0.9c0.3-0.3,0.5-0.5,0.7-0.9
		c1-1.7,0.9-3.9,0.7-6c0-0.3-0.1-0.6-0.1-0.9c-0.1-0.7-0.1-2.8,0.7-4.7c1.4-1.7,3.6-2.6,4.4-2.8c0.3-0.1,0.6-0.2,0.9-0.3
		c2-0.6,4.1-1.3,5.3-2.9c0.2-0.3,0.4-0.6,0.5-1c0.7-1.7,0.3-3.5-1-4.7C219.8,168,218.3,168.1,217.9,168.2z"></path> <path d="M11.3,74.9l-1.1,2.5c-0.1,0.2,0,0.4,0.1,0.5c0.1,0.1,0.3,0.1,0.5,0l2.4-1.4l2.1,1.8c0.1,0.1,0.3,0.1,0.5,0
		c0.2-0.1,0.2-0.3,0.2-0.5l-0.6-2.7l2.4-1.4c0.1,0,0.1-0.1,0.2-0.2c0-0.1,0-0.2,0-0.3c0-0.2-0.2-0.3-0.4-0.3l-2.7-0.2l-0.6-2.7
		c0-0.2-0.2-0.3-0.4-0.3c-0.2,0-0.4,0.1-0.4,0.3l-1.1,2.5l-2.7-0.2c-0.2,0-0.4,0.1-0.4,0.3c-0.1,0.2,0,0.4,0.1,0.5L11.3,74.9z"></path> <path d="M18.5,68.2C18.5,68.2,18.5,68.1,18.5,68.2c0.6-0.2,1-0.5,1.2-1c0.6-1.4-1-3.5-1.2-3.7c-0.1-0.2-0.4-0.2-0.6-0.1
		c-0.2,0.1-0.2,0.4-0.1,0.6c0.6,0.8,0.8,1.5,0.6,2c-0.1,0.3-0.4,0.5-0.8,0.6c-0.6,0.1-1.2-0.3-1.7-0.9c-0.6-0.8-0.6-1.6,0-2.4
		c0,0,0,0,0-0.1c1.2-1.7,3.5-2.1,4.4-2.3c0.2,0,0.3-0.1,0.3-0.1c3-0.9,4.7-2.5,5.7-3.9c1.2-1.4,2.4-3.7,2-7.4c0-0.1,0-0.2-0.1-0.3
		c-0.2-0.9-0.6-3.2,0.5-4.9c0,0,0,0,0.1-0.1c0.5-0.9,1.3-1.2,2.3-0.9c0.8,0.2,1.3,0.6,1.5,1.2c0.1,0.4,0,0.7-0.2,1
		c-0.4,0.4-1.2,0.5-2.1,0.2c-0.2-0.1-0.5,0.1-0.5,0.3c-0.1,0.2,0.1,0.5,0.3,0.5c0.3,0.1,2.8,0.8,3.9-0.3c0.4-0.4,0.5-0.8,0.4-1.4
		c0,0,0,0,0-0.1c-0.1-0.4-0.6-1.9-2.1-2.6c-1.6-0.7-3.4-0.4-4.7,0.9c-0.3,0.3-0.5,0.5-0.7,0.9c-1,1.7-0.9,3.9-0.7,6
		c0,0.3,0.1,0.6,0.1,0.9c0.1,0.7,0.1,2.8-0.7,4.7c-1.4,1.7-3.6,2.6-4.4,2.8c-0.3,0.1-0.6,0.2-0.9,0.3c-2,0.6-4.1,1.3-5.3,2.9
		c-0.2,0.3-0.4,0.6-0.5,1c-0.7,1.7-0.3,3.5,1,4.7C16.5,68.3,18,68.2,18.5,68.2z"></path> <path d="M222.4,70.7l-0.7,2.7l-2.8,0.2c-0.2,0-0.3,0.1-0.4,0.3c0,0.2,0,0.4,0.2,0.5l2.3,1.4l-0.7,2.7c0,0.1,0,0.2,0,0.3
		c0,0.1,0.1,0.2,0.2,0.2c0.2,0.1,0.4,0.1,0.5,0l2.1-1.8l2.3,1.4c0.2,0.1,0.4,0.1,0.5,0c0.1-0.1,0.2-0.3,0.1-0.5l-1-2.6l2.1-1.8
		c0.1-0.1,0.2-0.3,0.1-0.5c-0.1-0.2-0.2-0.3-0.4-0.3l-2.8,0.2l-1-2.6c-0.1-0.2-0.2-0.3-0.4-0.3C222.6,70.4,222.5,70.5,222.4,70.7z"></path> <path d="M224,83C224,83.1,224,83.1,224,83c-0.3,0.6-0.4,1.1-0.2,1.6c0.6,1.4,3.2,1.7,3.5,1.8c0.2,0,0.4-0.1,0.5-0.4
		c0-0.2-0.1-0.4-0.4-0.5c-1-0.1-1.6-0.5-1.8-1c-0.1-0.3-0.1-0.7,0.2-1c0.4-0.5,1.1-0.7,1.8-0.6c1,0.1,1.6,0.7,1.7,1.7
		c0,0,0,0.1,0,0.1c0.3,2-1,4-1.5,4.7c-0.1,0.1-0.2,0.2-0.2,0.3c-1.5,2.8-1.6,5.1-1.2,6.8c0.1,1.8,0.9,4.3,3.8,6.6
		c0.1,0,0.2,0.1,0.3,0.2c0.7,0.5,2.7,1.8,3.2,3.8c0,0,0,0.1,0,0.1c0.2,1-0.1,1.8-0.9,2.3c-0.7,0.4-1.4,0.5-1.9,0.2
		c-0.3-0.2-0.5-0.5-0.5-0.9c0-0.6,0.5-1.2,1.3-1.6c0.2-0.1,0.3-0.4,0.2-0.6c-0.1-0.2-0.4-0.3-0.6-0.2c-0.3,0.1-2.6,1.4-2.6,2.9
		c0,0.5,0.2,0.9,0.7,1.3c0,0,0,0,0,0c0.4,0.2,1.7,0.9,3.3,0.3c1.7-0.6,2.7-2.2,2.7-4c0-0.4,0-0.7-0.1-1.1c-0.5-1.9-2.1-3.4-3.8-4.7
		c-0.2-0.2-0.5-0.4-0.7-0.6c-0.6-0.5-2.1-1.9-2.8-3.8c-0.2-2.2,0.8-4.4,1.1-5.1c0.1-0.3,0.3-0.6,0.4-0.8c1-1.9,2-3.8,1.7-5.8
		c-0.1-0.4-0.2-0.7-0.3-1.1c-0.7-1.7-2.2-2.7-4-2.6C225.3,81.5,224.3,82.7,224,83z"></path> <path d="M13.9,165.7l0.7-2.7l2.8-0.2c0.2,0,0.3-0.1,0.4-0.3c0-0.2,0-0.4-0.2-0.5l-2.3-1.4l0.7-2.7c0-0.1,0-0.2,0-0.3
		c0-0.1-0.1-0.2-0.2-0.2c-0.2-0.1-0.4-0.1-0.5,0l-2.1,1.8l-2.3-1.4c-0.2-0.1-0.4-0.1-0.5,0c-0.1,0.1-0.2,0.3-0.1,0.5l1,2.6L9,162.6
		c-0.1,0.1-0.2,0.3-0.1,0.5c0.1,0.2,0.2,0.3,0.4,0.3l2.8-0.2l1,2.6c0.1,0.2,0.2,0.3,0.4,0.3C13.7,166,13.9,165.8,13.9,165.7z"></path> <path d="M12.3,153.3C12.3,153.3,12.3,153.3,12.3,153.3c0.3-0.6,0.4-1.1,0.2-1.6c-0.6-1.4-3.2-1.7-3.5-1.8c-0.2,0-0.4,0.1-0.5,0.4
		c0,0.2,0.1,0.4,0.4,0.5c1,0.1,1.6,0.5,1.8,1c0.1,0.3,0.1,0.7-0.2,1c-0.4,0.5-1.1,0.7-1.8,0.6c-1-0.1-1.6-0.7-1.7-1.7
		c0,0,0-0.1,0-0.1c-0.3-2,1-4,1.5-4.7c0.1-0.1,0.2-0.2,0.2-0.3c1.5-2.8,1.6-5.1,1.2-6.8c-0.1-1.8-0.9-4.3-3.8-6.6
		c-0.1,0-0.2-0.1-0.3-0.2c-0.7-0.5-2.7-1.8-3.2-3.8c0,0,0-0.1,0-0.1c-0.2-1,0.1-1.8,0.9-2.3c0.7-0.4,1.4-0.5,1.9-0.2
		c0.3,0.2,0.5,0.5,0.5,0.9c0,0.6-0.5,1.2-1.3,1.6c-0.2,0.1-0.3,0.4-0.2,0.6c0.1,0.2,0.4,0.3,0.6,0.2c0.3-0.1,2.6-1.4,2.6-2.9
		c0-0.5-0.2-0.9-0.7-1.3c0,0,0,0,0,0c-0.4-0.2-1.7-0.9-3.3-0.3c-1.7,0.6-2.7,2.2-2.7,4c0,0.4,0,0.7,0.1,1.1c0.5,1.9,2.1,3.4,3.8,4.7
		c0.2,0.2,0.5,0.4,0.7,0.6c0.6,0.5,2.1,1.9,2.8,3.8c0.2,2.2-0.8,4.4-1.1,5.1c-0.1,0.3-0.3,0.6-0.4,0.8c-1,1.9-2,3.8-1.7,5.8
		c0.1,0.4,0.2,0.7,0.3,1.1c0.7,1.7,2.2,2.7,4,2.6C11.1,154.8,12.1,153.7,12.3,153.3z"></path> <path d="M165.7,222.4l-2.7-0.7l-0.2-2.8c0-0.2-0.1-0.3-0.3-0.4c-0.2,0-0.4,0-0.5,0.2l-1.4,2.3l-2.7-0.7c-0.1,0-0.2,0-0.3,0
		c-0.1,0-0.2,0.1-0.2,0.2c-0.1,0.2-0.1,0.4,0,0.5l1.8,2.1l-1.4,2.3c-0.1,0.2-0.1,0.4,0,0.5c0.1,0.1,0.3,0.2,0.5,0.1l2.6-1l1.8,2.1
		c0.1,0.1,0.3,0.2,0.5,0.1c0.2-0.1,0.3-0.2,0.3-0.4l-0.2-2.8l2.6-1c0.2-0.1,0.3-0.2,0.3-0.4C166,222.6,165.8,222.5,165.7,222.4z"></path> <path d="M153.3,224C153.3,224,153.3,224,153.3,224c-0.6-0.3-1.1-0.4-1.6-0.2c-1.4,0.6-1.7,3.2-1.8,3.5c0,0.2,0.1,0.4,0.4,0.5
		c0.2,0,0.4-0.1,0.5-0.4c0.1-1,0.5-1.6,1-1.8c0.3-0.1,0.7-0.1,1,0.2c0.5,0.4,0.7,1.1,0.6,1.8c-0.1,1-0.7,1.6-1.7,1.7
		c0,0-0.1,0-0.1,0c-2,0.3-4-1-4.7-1.5c-0.1-0.1-0.2-0.2-0.3-0.2c-2.8-1.5-5.1-1.6-6.8-1.2c-1.8,0.1-4.3,0.9-6.6,3.8
		c0,0.1-0.1,0.2-0.2,0.3c-0.5,0.7-1.8,2.7-3.8,3.2c0,0-0.1,0-0.1,0c-1,0.2-1.8-0.1-2.3-0.9c-0.4-0.7-0.5-1.4-0.2-1.9
		c0.2-0.3,0.5-0.5,0.9-0.5c0.6,0,1.2,0.5,1.6,1.3c0.1,0.2,0.4,0.3,0.6,0.2c0.2-0.1,0.3-0.4,0.2-0.6c-0.1-0.3-1.4-2.6-2.9-2.6
		c-0.5,0-0.9,0.2-1.3,0.7c0,0,0,0,0,0c-0.2,0.4-0.9,1.7-0.3,3.3c0.6,1.7,2.2,2.7,4,2.7c0.4,0,0.7,0,1.1-0.1c1.9-0.5,3.4-2.1,4.7-3.8
		c0.2-0.2,0.4-0.5,0.6-0.7c0.5-0.6,1.9-2.1,3.8-2.8c2.2-0.2,4.4,0.8,5.1,1.1c0.3,0.1,0.6,0.3,0.8,0.4c1.9,1,3.8,2,5.8,1.7
		c0.4-0.1,0.7-0.2,1.1-0.3c1.7-0.7,2.7-2.2,2.6-4C154.8,225.3,153.7,224.3,153.3,224z"></path> <path d="M77.2,13l1.4-2.3c0.1-0.2,0.1-0.4,0-0.5C78.4,10,78.2,10,78.1,10l-2.6,1L73.7,9c-0.1-0.1-0.3-0.2-0.5-0.1
		C73.1,8.9,73,9.1,73,9.3l0.2,2.8l-2.6,1c-0.2,0.1-0.3,0.2-0.3,0.4c0,0.2,0.1,0.3,0.3,0.4l2.7,0.7l0.2,2.8c0,0.2,0.1,0.3,0.3,0.4
		c0.2,0,0.4,0,0.5-0.2l1.4-2.3l2.7,0.7c0.1,0,0.2,0,0.3,0c0.1,0,0.2-0.1,0.2-0.2c0.1-0.2,0.1-0.4,0-0.5L77.2,13z"></path> <path d="M63.4,13.9c-0.3,0.1-0.7,0.3-1,0.5c-1.6,1.2-2.3,3.3-2.9,5.3c-0.1,0.3-0.2,0.6-0.3,0.9c-0.2,0.7-1.1,2.8-2.6,4.2
		c-2,1.2-4.6,1.2-5.5,1.1c-0.3,0-0.6,0-0.9-0.1c-2.1-0.2-4.3-0.4-6,0.7c-0.3,0.2-0.6,0.4-0.9,0.7c-1.3,1.3-1.6,3.1-0.9,4.7
		c0.7,1.6,2.2,2,2.6,2.1c0,0,0,0,0.1,0c0.6,0.1,1.1-0.1,1.4-0.4c1.1-1.1,0.4-3.6,0.3-3.9c-0.1-0.2-0.3-0.4-0.5-0.3
		c-0.2,0.1-0.4,0.3-0.3,0.5c0.2,0.9,0.1,1.7-0.2,2.1c-0.2,0.2-0.6,0.3-1,0.2c-0.6-0.2-1-0.7-1.2-1.5c-0.2-1,0.1-1.7,0.9-2.3
		c0,0,0,0,0.1-0.1c1.7-1.1,4-0.6,4.9-0.5c0.2,0,0.3,0.1,0.3,0.1c3.4,0.4,5.7-0.6,7.1-1.8c1.7-0.8,3.8-2.5,4.8-6.1
		c0-0.1,0-0.2,0.1-0.3c0.2-0.9,0.6-3.2,2.3-4.4c0,0,0,0,0.1,0c0.8-0.6,1.6-0.6,2.4,0c0.6,0.5,0.9,1.1,0.9,1.7c0,0.4-0.3,0.7-0.6,0.8
		c-0.5,0.2-1.2,0-2-0.6c-0.2-0.1-0.4-0.1-0.6,0.1c-0.1,0.2-0.1,0.4,0.1,0.6c0.2,0.2,2.3,1.8,3.7,1.3c0.5-0.2,0.8-0.6,1-1.2
		c0,0,0,0,0-0.1c0.1-0.4,0.2-2-1-3.2C66.9,13.6,65.1,13.2,63.4,13.9z"></path> </g> </symbol><symbol id="726a2323-c5f8-4778-bcb8-2396f8767858" preserveAspectRatio="xMidYMid meet" viewBox="2.15 11.39 285.05 57.52666666666667"><path d="M2.15 42.98L2.15 38.76L2.15 38.76Q2.15 37.04 2.83 35.50L2.83 35.50L2.83 35.50Q3.51 33.96 4.66 32.81L4.66 32.81L4.66 32.81Q5.80 31.66 7.34 30.98L7.34 30.98L7.34 30.98Q8.88 30.30 10.67 30.30L10.67 30.30L28.66 30.30L28.66 30.30Q29.59 30.30 30.09 30.88L30.09 30.88L30.09 30.88Q30.59 31.45 30.59 32.17L30.59 32.17L30.59 32.17Q30.59 32.88 30.12 33.46L30.12 33.46L30.12 33.46Q29.66 34.03 28.66 34.03L28.66 34.03L10.67 34.03L10.67 34.03Q9.46 34.03 8.45 34.89L8.45 34.89L8.45 34.89Q7.59 35.89 7.59 37.04L7.59 37.04L7.59 44.70L7.59 44.70Q7.59 45.85 8.45 46.85L8.45 46.85L8.45 46.85Q9.46 47.71 10.67 47.71L10.67 47.71L24.29 47.71L24.29 47.71Q26.01 47.71 27.55 48.39L27.55 48.39L27.55 48.39Q29.09 49.07 30.23 50.15L30.23 50.15L30.23 50.15Q31.38 51.37 32.06 52.91L32.06 52.91L32.06 52.91Q32.74 54.45 32.74 56.17L32.74 56.17L32.74 60.39L32.74 60.39Q32.74 62.18 32.06 63.72L32.06 63.72L32.06 63.72Q31.38 65.26 30.23 66.34L30.23 66.34L30.23 66.34Q27.87 68.85 24.29 68.85L24.29 68.85L5.95 68.85L5.95 68.85Q5.01 68.85 4.51 68.27L4.51 68.27L4.51 68.27Q4.01 67.70 4.01 67.02L4.01 67.02L4.01 67.02Q4.01 66.34 4.48 65.77L4.48 65.77L4.48 65.77Q4.94 65.19 5.95 65.19L5.95 65.19L24.29 65.19L24.29 65.19Q25.50 65.19 26.44 64.26L26.44 64.26L26.44 64.26Q27.29 63.26 27.29 62.11L27.29 62.11L27.29 54.45L27.29 54.45Q27.29 53.23 26.44 52.37L26.44 52.37L26.44 52.37Q25.50 51.44 24.29 51.44L24.29 51.44L10.67 51.44L10.67 51.44Q8.88 51.44 7.34 50.76L7.34 50.76L7.34 50.76Q5.80 50.08 4.66 49.00L4.66 49.00L4.66 49.00Q3.51 47.78 2.83 46.24L2.83 46.24L2.83 46.24Q2.15 44.70 2.15 42.98L2.15 42.98ZM37.04 60.46L37.04 38.76L37.04 38.76Q37.04 36.97 37.68 35.46L37.68 35.46L37.68 35.46Q38.33 33.96 39.47 32.74L39.47 32.74L39.47 32.74Q40.62 31.59 42.16 30.95L42.16 30.95L42.16 30.95Q43.70 30.30 45.49 30.30L45.49 30.30L65.84 30.30L65.84 30.30Q67.63 30.30 69.13 30.95L69.13 30.95L69.13 30.95Q70.64 31.59 71.85 32.74L71.85 32.74L71.85 32.74Q73.00 33.96 73.65 35.46L73.65 35.46L73.65 35.46Q74.29 36.97 74.29 38.76L74.29 38.76L74.29 60.46L74.29 60.46Q74.29 62.18 73.65 63.72L73.65 63.72L73.65 63.72Q73.00 65.26 71.85 66.41L71.85 66.41L71.85 66.41Q70.64 67.56 69.13 68.20L69.13 68.20L69.13 68.20Q67.63 68.85 65.84 68.85L65.84 68.85L45.49 68.85L45.49 68.85Q43.70 68.85 42.16 68.20L42.16 68.20L42.16 68.20Q40.62 67.56 39.47 66.41L39.47 66.41L39.47 66.41Q38.33 65.26 37.68 63.72L37.68 63.72L37.68 63.72Q37.04 62.18 37.04 60.46L37.04 60.46ZM42.41 37.04L42.48 37.04L42.48 62.18L42.41 62.18L42.41 62.18Q42.41 63.33 43.34 64.26L43.34 64.26L43.34 64.26Q44.27 65.19 45.49 65.19L45.49 65.19L45.49 65.12L65.84 65.12L65.84 65.19L65.84 65.19Q67.06 65.19 67.99 64.26L67.99 64.26L67.99 64.26Q68.92 63.33 68.92 62.18L68.92 62.18L68.85 62.18L68.85 37.04L68.92 37.04L68.92 37.04Q68.92 35.75 67.99 34.96L67.99 34.96L67.99 34.96Q67.06 34.03 65.84 34.03L65.84 34.03L45.49 34.03L45.49 34.03Q44.27 34.03 43.34 34.96L43.34 34.96L43.34 34.96Q42.41 35.75 42.41 37.04L42.41 37.04ZM96.71 31.66L105.74 31.66L105.74 31.66Q106.67 31.66 107.14 32.24L107.14 32.24L107.14 32.24Q107.60 32.81 107.64 33.53L107.64 33.53L107.64 33.53Q107.67 34.24 107.21 34.82L107.21 34.82L107.21 34.82Q106.74 35.39 105.74 35.39L105.74 35.39L96.71 35.39L96.71 35.39Q96.00 35.39 95.50 35.89L95.50 35.89L95.50 35.89Q94.99 36.39 94.99 37.11L94.99 37.11L94.99 66.20L94.99 66.20Q94.99 67.34 94.24 68.09L94.24 68.09L94.24 68.09Q93.49 68.85 92.34 68.85L92.34 68.85L92.27 68.85L92.27 68.85Q91.13 68.85 90.34 68.09L90.34 68.09L90.34 68.09Q89.55 67.34 89.55 66.20L89.55 66.20L89.55 37.11L89.55 37.11Q89.55 36.39 89.05 35.89L89.05 35.89L89.05 35.89Q88.55 35.39 87.83 35.39L87.83 35.39L80.60 35.39L80.60 35.39Q79.59 35.39 79.13 34.82L79.13 34.82L79.13 34.82Q78.66 34.24 78.66 33.53L78.66 33.53L78.66 33.53Q78.66 32.81 79.16 32.24L79.16 32.24L79.16 32.24Q79.66 31.66 80.60 31.66L80.60 31.66L87.83 31.66L87.83 31.66Q88.55 31.66 89.05 31.20L89.05 31.20L89.05 31.20Q89.55 30.73 89.55 29.95L89.55 29.95L89.55 20.27L89.55 20.27Q89.55 18.48 90.19 16.98L90.19 16.98L90.19 16.98Q90.84 15.47 92.06 14.26L92.06 14.26L92.06 14.26Q93.20 13.11 94.71 12.47L94.71 12.47L94.71 12.47Q96.21 11.82 98.00 11.82L98.00 11.82L105.45 11.82L105.45 11.82Q106.39 11.82 106.89 12.39L106.89 12.39L106.89 12.39Q107.39 12.97 107.39 13.68L107.39 13.68L107.39 13.68Q107.39 14.40 106.92 14.97L106.92 14.97L106.92 14.97Q106.46 15.55 105.45 15.55L105.45 15.55L98.00 15.55L98.00 15.55Q96.79 15.55 95.85 16.48L95.85 16.48L95.85 16.48Q94.99 17.34 94.99 18.55L94.99 18.55L94.99 29.95L94.99 29.95Q94.99 30.73 95.50 31.20L95.50 31.20L95.50 31.20Q96.00 31.66 96.71 31.66L96.71 31.66ZM128.02 31.16L136.98 31.16L136.98 31.16Q138.05 31.16 138.59 31.77L138.59 31.77L138.59 31.77Q139.12 32.38 139.12 33.06L139.12 33.06L139.12 33.06Q139.12 33.74 138.59 34.32L138.59 34.32L138.59 34.32Q138.05 34.89 136.98 34.89L136.98 34.89L128.02 34.89L128.02 34.89Q126.87 34.89 126.87 36.03L126.87 36.03L126.87 62.18L126.87 62.18Q126.87 63.26 127.73 64.26L127.73 64.26L127.73 64.26Q128.59 65.12 129.95 65.12L129.95 65.12L137.05 65.12L137.05 65.12Q138.05 65.12 138.52 65.69L138.52 65.69L138.52 65.69Q138.98 66.27 138.98 66.98L138.98 66.98L138.98 66.98Q138.98 67.70 138.48 68.27L138.48 68.27L138.48 68.27Q137.98 68.85 137.05 68.85L137.05 68.85L129.95 68.85L129.95 68.85Q126.23 68.85 123.94 66.41L123.94 66.41L123.94 66.41Q122.79 65.19 122.11 63.72L122.11 63.72L122.11 63.72Q121.43 62.26 121.43 60.46L121.43 60.46L121.43 36.03L121.43 36.03Q121.43 34.89 120.28 34.89L120.28 34.89L114.12 34.89L114.12 34.89Q113.05 34.89 112.51 34.32L112.51 34.32L112.51 34.32Q111.97 33.74 111.97 33.06L111.97 33.06L111.97 33.06Q111.97 32.38 112.51 31.77L112.51 31.77L112.51 31.77Q113.05 31.16 114.12 31.16L114.12 31.16L120.28 31.16L120.28 31.16Q121.43 31.16 121.43 30.02L121.43 30.02L121.43 19.06L121.43 19.06Q121.43 17.91 122.22 17.16L122.22 17.16L122.22 17.16Q123.01 16.41 124.15 16.41L124.15 16.41L124.22 16.41L124.22 16.41Q125.30 16.41 126.09 17.16L126.09 17.16L126.09 17.16Q126.87 17.91 126.87 19.06L126.87 19.06L126.87 30.02L126.87 30.02Q126.87 31.16 128.02 31.16L128.02 31.16ZM154.67 66.84L143.64 33.67L143.64 33.67Q143.28 32.52 143.82 31.56L143.82 31.56L143.82 31.56Q144.35 30.59 145.43 30.30L145.43 30.30L145.43 30.30Q146.50 29.95 147.47 30.48L147.47 30.48L147.47 30.48Q148.44 31.02 148.80 32.09L148.80 32.09L157.39 56.81L157.39 56.81Q157.39 57.24 157.89 57.24L157.89 57.24L157.89 57.24Q158.25 57.24 158.47 56.88L158.47 56.88L169.14 38.26L169.14 38.26Q169.57 37.25 170.65 36.86L170.65 36.86L170.65 36.86Q171.72 36.46 172.72 36.97L172.72 36.97L172.72 36.97Q173.66 37.40 174.09 38.26L174.09 38.26L184.76 57.17L184.76 57.17Q184.97 57.53 185.33 57.53L185.33 57.53L185.33 57.53Q185.76 57.38 185.83 57.03L185.83 57.03L194.43 32.09L194.43 32.09Q194.79 31.02 195.76 30.48L195.76 30.48L195.76 30.48Q196.72 29.95 197.80 30.30L197.80 30.30L197.80 30.30Q198.87 30.59 199.45 31.56L199.45 31.56L199.45 31.56Q200.02 32.52 199.66 33.67L199.66 33.67L188.63 66.63L188.63 66.63Q188.41 67.99 187.12 68.56L187.12 68.56L187.12 68.56Q186.12 69.06 185.05 68.63L185.05 68.63L185.05 68.63Q183.97 68.20 183.47 67.20L183.47 67.20L172.15 46.35L172.15 46.35Q171.94 45.99 171.65 45.99L171.65 45.99L171.65 45.99Q171.22 45.99 171.08 46.35L171.08 46.35L159.69 67.20L159.69 67.20Q159.18 68.42 157.97 68.70L157.97 68.70L157.97 68.70Q156.89 68.99 155.96 68.45L155.96 68.45L155.96 68.45Q155.03 67.91 154.67 66.84L154.67 66.84ZM210.41 27.87L210.41 65.98L210.41 65.98Q210.41 67.20 209.65 67.99L209.65 67.99L209.65 67.99Q208.90 68.77 207.68 68.77L207.68 68.77L207.68 68.77Q206.54 68.77 205.75 67.99L205.75 67.99L205.75 67.99Q204.96 67.20 204.96 65.98L204.96 65.98L204.96 27.87L204.96 27.87Q204.96 26.79 205.75 26.01L205.75 26.01L205.75 26.01Q206.54 25.22 207.68 25.22L207.68 25.22L207.68 25.22Q208.90 25.22 209.65 26.01L209.65 26.01L209.65 26.01Q210.41 26.79 210.41 27.87L210.41 27.87ZM207.68 11.89L207.68 11.89L207.68 11.89Q209.26 11.89 210.30 12.97L210.30 12.97L210.30 12.97Q211.34 14.04 211.34 15.55L211.34 15.55L211.34 15.55Q211.34 17.05 210.30 18.12L210.30 18.12L210.30 18.12Q209.26 19.20 207.68 19.20L207.68 19.20L207.68 19.20Q206.18 19.20 205.14 18.12L205.14 18.12L205.14 18.12Q204.10 17.05 204.10 15.55L204.10 15.55L204.10 15.55Q204.10 14.04 205.14 12.97L205.14 12.97L205.14 12.97Q206.18 11.89 207.68 11.89ZM246.66 38.76L246.66 66.05L246.66 66.05Q246.66 67.27 245.87 68.06L245.87 68.06L245.87 68.06Q245.08 68.85 243.93 68.85L243.93 68.85L243.93 68.85Q242.79 68.85 242.00 68.06L242.00 68.06L242.00 68.06Q241.21 67.27 241.21 66.05L241.21 66.05L241.21 37.04L241.28 37.04L241.28 37.04Q241.28 35.68 240.35 34.89L240.35 34.89L240.35 34.89Q239.42 33.96 238.20 33.96L238.20 33.96L224.09 33.96L224.09 33.96Q222.87 33.96 221.94 34.89L221.94 34.89L221.94 34.89Q221.01 35.68 221.01 37.04L221.01 37.04L221.08 37.04L221.08 66.05L221.08 66.05Q221.08 67.27 220.26 68.06L220.26 68.06L220.26 68.06Q219.43 68.85 218.36 68.85L218.36 68.85L218.36 68.85Q217.21 68.85 216.42 68.06L216.42 68.06L216.42 68.06Q215.64 67.27 215.64 66.05L215.64 66.05L215.64 38.76L215.64 38.76Q215.64 36.97 216.28 35.43L216.28 35.43L216.28 35.43Q216.93 33.89 218.07 32.81L218.07 32.81L218.07 32.81Q220.44 30.30 224.09 30.30L224.09 30.30L224.09 30.23L238.20 30.23L238.20 30.30L238.20 30.30Q239.99 30.30 241.53 30.95L241.53 30.95L241.53 30.95Q243.07 31.59 244.15 32.81L244.15 32.81L244.15 32.81Q245.37 33.89 246.01 35.43L246.01 35.43L246.01 35.43Q246.66 36.97 246.66 38.76L246.66 38.76ZM281.83 31.59L281.83 14.11L281.83 14.11Q281.83 12.97 282.62 12.18L282.62 12.18L282.62 12.18Q283.41 11.39 284.48 11.39L284.48 11.39L284.48 11.39Q285.63 11.39 286.42 12.18L286.42 12.18L286.42 12.18Q287.20 12.97 287.20 14.11L287.20 14.11L287.20 60.54L287.20 60.54Q287.20 62.26 286.56 63.72L286.56 63.72L286.56 63.72Q285.92 65.19 284.77 66.41L284.77 66.41L284.77 66.41Q283.62 67.56 282.12 68.20L282.12 68.20L282.12 68.20Q280.61 68.85 278.89 68.85L278.89 68.85L259.27 68.85L259.27 68.85Q257.55 68.85 256.04 68.20L256.04 68.20L256.04 68.20Q254.54 67.56 253.39 66.41L253.39 66.41L253.39 66.41Q252.24 65.19 251.60 63.72L251.60 63.72L251.60 63.72Q250.95 62.26 250.95 60.54L250.95 60.54L250.95 42.20L250.95 42.20Q250.95 40.48 251.60 39.01L251.60 39.01L251.60 39.01Q252.24 37.54 253.39 36.32L253.39 36.32L253.39 36.32Q254.54 35.18 256.04 34.53L256.04 34.53L256.04 34.53Q257.55 33.89 259.27 33.89L259.27 33.89L279.54 33.89L279.54 33.89Q280.54 33.89 281.19 33.24L281.19 33.24L281.19 33.24Q281.83 32.60 281.83 31.59L281.83 31.59ZM281.83 62.18L281.83 39.83L281.83 39.83Q281.83 38.90 281.19 38.26L281.19 38.26L281.19 38.26Q280.54 37.61 279.54 37.61L279.54 37.61L259.27 37.61L259.27 37.61Q258.05 37.61 257.19 38.47L257.19 38.47L257.19 38.47Q256.33 39.33 256.33 40.55L256.33 40.55L256.33 62.18L256.33 62.18Q256.33 63.40 257.19 64.26L257.19 64.26L257.19 64.26Q258.05 65.12 259.27 65.12L259.27 65.12L278.89 65.12L278.89 65.12Q280.11 65.12 280.97 64.26L280.97 64.26L280.97 64.26Q281.83 63.40 281.83 62.18L281.83 62.18Z"></path></symbol><symbol id="7e3fe662-530b-4bf8-bd77-5a9f9865506b" preserveAspectRatio="xMidYMin meet" viewBox="0.88 0.88 198.76 22.28"><path d="M3.63 0.88L4.39 0.88L4.39 5.28L3.63 5.28L3.63 0.88ZM0.88 8.31L0.88 7.55L2.60 7.55L2.60 7.55Q3.51 7.55 4.14 8.18L4.14 8.18L4.14 8.18Q4.78 8.81 4.78 9.74L4.78 9.74L4.78 20.54L4.78 20.54Q4.78 21.13 5.18 21.54L5.18 21.54L5.18 21.54Q5.59 21.95 6.18 21.95L6.18 21.95L7.59 21.95L7.59 22.71L6.18 22.71L6.18 22.71Q5.76 22.71 5.36 22.54L5.36 22.54L5.36 22.54Q4.97 22.38 4.67 22.08L4.67 22.08L4.67 22.08Q4.37 21.78 4.19 21.38L4.19 21.38L4.19 21.38Q4.01 20.99 4.01 20.54L4.01 20.54L4.01 9.74L4.01 9.74Q4.01 9.15 3.61 8.73L3.61 8.73L3.61 8.73Q3.20 8.31 2.60 8.31L2.60 8.31L0.88 8.31ZM9.67 2.32L9.67 1.55L19.13 1.55L19.13 1.55Q19.65 1.55 20.13 1.77L20.13 1.77L20.13 1.77Q20.61 1.98 20.97 2.34L20.97 2.34L20.97 2.34Q21.32 2.70 21.54 3.18L21.54 3.18L21.54 3.18Q21.75 3.65 21.75 4.18L21.75 4.18L21.75 9.05L21.75 9.05Q21.75 9.60 21.54 10.08L21.54 10.08L21.54 10.08Q21.32 10.55 20.97 10.90L20.97 10.90L20.97 10.90Q20.61 11.25 20.13 11.45L20.13 11.45L20.13 11.45Q19.65 11.65 19.13 11.65L19.13 11.65L12.49 11.65L12.49 11.65Q11.70 11.65 11.16 12.20L11.16 12.20L11.16 12.20Q10.63 12.75 10.63 13.52L10.63 13.52L10.63 20.15L10.63 20.15Q10.63 20.92 11.16 21.46L11.16 21.46L11.16 21.46Q11.70 21.99 12.49 21.99L12.49 21.99L22.97 21.99L22.97 22.76L12.49 22.76L12.49 22.76Q11.94 22.76 11.46 22.55L11.46 22.55L11.46 22.55Q10.98 22.35 10.63 21.99L10.63 21.99L10.63 21.99Q10.27 21.64 10.07 21.17L10.07 21.17L10.07 21.17Q9.86 20.70 9.86 20.15L9.86 20.15L9.86 13.52L9.86 13.52Q9.86 12.99 10.07 12.51L10.07 12.51L10.07 12.51Q10.27 12.04 10.63 11.68L10.63 11.68L10.63 11.68Q10.98 11.32 11.46 11.10L11.46 11.10L11.46 11.10Q11.94 10.89 12.49 10.89L12.49 10.89L19.13 10.89L19.13 10.89Q19.89 10.89 20.44 10.36L20.44 10.36L20.44 10.36Q20.99 9.84 20.99 9.05L20.99 9.05L20.99 4.18L20.99 4.18Q20.99 3.41 20.44 2.87L20.44 2.87L20.44 2.87Q19.89 2.32 19.13 2.32L19.13 2.32L9.67 2.32ZM46.42 22.14L45.92 22.73L36.44 15.09L36.44 20.39L36.44 20.39Q36.44 20.94 36.24 21.42L36.24 21.42L36.24 21.42Q36.03 21.90 35.68 22.26L35.68 22.26L35.68 22.26Q35.32 22.61 34.84 22.82L34.84 22.82L34.84 22.82Q34.36 23.02 33.84 23.02L33.84 23.02L32.09 23.02L32.09 22.26L33.84 22.26L33.84 22.26Q34.60 22.26 35.14 21.71L35.14 21.71L35.14 21.71Q35.68 21.16 35.68 20.39L35.68 20.39L35.68 10.84L24.76 10.84L24.76 10.10L43.37 10.10L43.37 6.57L27.13 6.57L27.13 5.80L43.37 5.80L43.37 4.11L43.37 4.11Q43.37 3.34 42.82 2.79L42.82 2.79L42.82 2.79Q42.27 2.24 41.50 2.24L41.50 2.24L27.13 2.24L27.13 1.50L41.50 1.50L41.50 1.50Q42.03 1.50 42.51 1.71L42.51 1.71L42.51 1.71Q42.98 1.91 43.34 2.27L43.34 2.27L43.34 2.27Q43.70 2.63 43.92 3.10L43.92 3.10L43.92 3.10Q44.13 3.58 44.13 4.11L44.13 4.11L44.13 10.10L46.85 10.10L46.85 10.84L36.44 10.84L36.44 14.09L38.92 16.10L45.44 12.27L45.85 12.94L39.57 16.62L46.42 22.14ZM25.41 21.95L25.00 21.32L32.52 16.57L32.93 17.22L25.41 21.95ZM26.15 12.82L26.55 12.15L31.07 14.88L30.66 15.55L26.15 12.82ZM59.75 1.39L60.51 1.24L60.51 1.24Q60.85 3.10 61.18 4.93L61.18 4.93L61.18 4.93Q61.51 6.76 61.99 8.57L61.99 8.57L70.49 7.50L70.59 8.26L62.18 9.34L62.18 9.34Q62.69 11.13 63.33 12.86L63.33 12.86L63.33 12.86Q63.97 14.59 64.88 16.23L64.88 16.23L64.88 16.23Q65.79 17.86 67.00 19.39L67.00 19.39L67.00 19.39Q68.20 20.92 69.78 22.30L69.78 22.30L69.28 22.88L69.28 22.88Q67.60 21.44 66.35 19.86L66.35 19.86L66.35 19.86Q65.10 18.27 64.17 16.56L64.17 16.56L64.17 16.56Q63.23 14.85 62.58 13.06L62.58 13.06L62.58 13.06Q61.92 11.27 61.42 9.43L61.42 9.43L54.33 10.32L54.26 9.55L61.23 8.67L61.23 8.67Q60.77 6.88 60.43 5.05L60.43 5.05L60.43 5.05Q60.08 3.22 59.75 1.39L59.75 1.39ZM49.36 7.36L48.81 6.81L52.92 2.63L52.92 23.16L52.15 23.16L52.15 4.51L49.36 7.36ZM67.48 1.89L68.25 1.89L68.25 5.33L67.48 5.33L67.48 1.89ZM74.86 20.30L74.86 10.89L74.86 10.89Q74.55 11.58 74.21 12.23L74.21 12.23L74.21 12.23Q73.86 12.87 73.50 13.44L73.50 13.44L72.88 13.04L72.88 13.04Q73.38 12.18 73.86 11.21L73.86 11.21L73.86 11.21Q74.34 10.24 74.73 9.07L74.73 9.07L74.73 9.07Q75.13 7.90 75.42 6.50L75.42 6.50L75.42 6.50Q75.72 5.09 75.87 3.34L75.87 3.34L73.10 3.34L73.10 2.58L81.74 2.58L81.74 3.34L76.63 3.34L76.63 3.34Q76.49 4.99 76.21 6.36L76.21 6.36L76.21 6.36Q75.94 7.74 75.58 8.91L75.58 8.91L75.58 8.91Q76.11 8.45 76.82 8.45L76.82 8.45L79.09 8.45L79.09 8.45Q79.88 8.45 80.45 9.04L80.45 9.04L80.45 9.04Q81.02 9.62 81.02 10.41L81.02 10.41L81.02 20.30L81.02 20.30Q81.02 21.11 80.45 21.68L80.45 21.68L80.45 21.68Q79.88 22.26 79.09 22.26L79.09 22.26L76.82 22.26L76.82 22.26Q76.03 22.26 75.45 21.68L75.45 21.68L75.45 21.68Q74.86 21.11 74.86 20.30L74.86 20.30ZM75.63 10.41L75.63 20.30L75.63 20.30Q75.63 20.82 75.99 21.16L75.99 21.16L75.99 21.16Q76.34 21.49 76.82 21.49L76.82 21.49L79.09 21.49L79.09 21.49Q79.57 21.49 79.91 21.16L79.91 21.16L79.91 21.16Q80.26 20.82 80.26 20.30L80.26 20.30L80.26 10.41L80.26 10.41Q80.26 9.93 79.91 9.58L79.91 9.58L79.91 9.58Q79.57 9.22 79.09 9.22L79.09 9.22L76.82 9.22L76.82 9.22Q76.34 9.22 75.99 9.58L75.99 9.58L75.99 9.58Q75.63 9.93 75.63 10.41L75.63 10.41ZM84.30 4.54L85.06 4.61L84.22 11.96L91.65 11.96L91.65 11.96Q92.20 11.96 92.68 12.17L92.68 12.17L92.68 12.17Q93.16 12.37 93.51 12.73L93.51 12.73L93.51 12.73Q93.87 13.09 94.08 13.56L94.08 13.56L94.08 13.56Q94.28 14.04 94.28 14.59L94.28 14.59L94.28 20.37L94.28 20.37Q94.28 20.92 94.08 21.40L94.08 21.40L94.08 21.40Q93.87 21.87 93.51 22.23L93.51 22.23L93.51 22.23Q93.16 22.59 92.68 22.79L92.68 22.79L92.68 22.79Q92.20 23.00 91.65 23.00L91.65 23.00L85.32 23.00L85.32 22.23L91.65 22.23L91.65 22.23Q92.44 22.23 92.98 21.68L92.98 21.68L92.98 21.68Q93.51 21.13 93.51 20.37L93.51 20.37L93.51 14.59L93.51 14.59Q93.51 13.80 92.98 13.27L92.98 13.27L92.98 13.27Q92.44 12.73 91.65 12.73L91.65 12.73L83.37 12.73L84.30 4.54ZM82.91 2.41L82.91 1.65L90.74 1.65L90.74 1.65Q91.27 1.65 91.75 1.86L91.75 1.86L91.75 1.86Q92.22 2.08 92.58 2.44L92.58 2.44L92.58 2.44Q92.94 2.79 93.16 3.27L93.16 3.27L93.16 3.27Q93.37 3.75 93.37 4.27L93.37 4.27L93.37 10.72L92.61 10.72L92.61 4.27L92.61 4.27Q92.61 3.51 92.06 2.96L92.06 2.96L92.06 2.96Q91.51 2.41 90.74 2.41L90.74 2.41L82.91 2.41ZM82.10 17.89L82.10 17.12L91.36 17.12L91.36 17.89L82.10 17.89ZM99.91 10.91L100.68 10.91L100.68 13.64L99.91 13.64L99.91 10.91ZM126.30 7.12L126.30 10.03L126.30 10.03Q126.30 10.55 125.93 10.93L125.93 10.93L125.93 10.93Q125.56 11.30 125.04 11.30L125.04 11.30L108.70 11.30L108.70 11.30Q108.18 11.30 107.81 10.93L107.81 10.93L107.81 10.93Q107.44 10.55 107.44 10.03L107.44 10.03L107.44 7.12L107.44 7.12Q107.44 6.59 107.81 6.22L107.81 6.22L107.81 6.22Q108.18 5.85 108.70 5.85L108.70 5.85L125.04 5.85L125.04 5.85Q125.56 5.85 125.93 6.22L125.93 6.22L125.93 6.22Q126.30 6.59 126.30 7.12L126.30 7.12ZM125.54 10.03L125.54 7.12L125.54 7.12Q125.54 6.90 125.39 6.75L125.39 6.75L125.39 6.75Q125.25 6.59 125.04 6.59L125.04 6.59L108.70 6.59L108.70 6.59Q108.49 6.59 108.34 6.75L108.34 6.75L108.34 6.75Q108.20 6.90 108.20 7.12L108.20 7.12L108.20 10.03L108.20 10.03Q108.20 10.24 108.34 10.40L108.34 10.40L108.34 10.40Q108.49 10.55 108.70 10.55L108.70 10.55L125.04 10.55L125.04 10.55Q125.25 10.55 125.39 10.40L125.39 10.40L125.39 10.40Q125.54 10.24 125.54 10.03L125.54 10.03ZM105.98 18.12L105.98 17.36L118.68 17.36L118.68 17.36Q120.04 16.69 121.26 15.89L121.26 15.89L121.26 15.89Q122.48 15.09 123.56 14.02L123.56 14.02L107.25 14.02L107.25 13.25L125.30 13.25L125.30 13.25Q124.15 14.54 122.85 15.57L122.85 15.57L122.85 15.57Q121.55 16.60 120.24 17.36L120.24 17.36L127.93 17.36L127.93 18.12L118.95 18.12L118.95 20.42L118.95 20.42Q118.95 20.90 118.77 21.32L118.77 21.32L118.77 21.32Q118.59 21.75 118.29 22.08L118.29 22.08L118.29 22.08Q117.99 22.40 117.60 22.58L117.60 22.58L117.60 22.58Q117.20 22.76 116.77 22.76L116.77 22.76L112.67 22.76L112.67 21.99L116.77 21.99L116.77 21.99Q117.37 21.99 117.78 21.54L117.78 21.54L117.78 21.54Q118.18 21.09 118.18 20.42L118.18 20.42L118.18 18.12L105.98 18.12ZM116.77 0.98L117.54 0.98L117.54 2.89L128.04 2.89L128.04 3.65L106.12 3.65L106.12 2.89L116.77 2.89L116.77 0.98ZM132.18 15.19L132.49 14.47L141.47 18.27L141.47 18.27Q143.40 17.17 144.87 15.90L144.87 15.90L144.87 15.90Q146.34 14.64 147.46 13.21L147.46 13.21L132.18 13.21L132.18 12.44L148.96 12.44L148.96 12.44Q147.72 14.23 146.07 15.77L146.07 15.77L146.07 15.77Q144.43 17.31 142.25 18.60L142.25 18.60L150.68 22.16L150.37 22.88L141.42 19.10L141.42 19.10Q139.27 20.30 136.69 21.23L136.69 21.23L136.69 21.23Q134.11 22.16 130.96 22.85L130.96 22.85L130.77 22.09L130.77 22.09Q133.75 21.47 136.18 20.63L136.18 20.63L136.18 20.63Q138.60 19.80 140.61 18.75L140.61 18.75L132.18 15.19ZM131.55 11.89L130.79 11.89L130.79 10.10L130.79 10.10Q130.79 9.15 131.41 8.42L131.41 8.42L131.41 8.42Q132.03 7.69 132.99 7.52L132.99 7.52L132.99 4.04L133.75 4.04L133.75 7.47L140.46 7.47L140.46 4.04L141.23 4.04L141.23 7.47L147.91 7.47L147.91 4.04L148.68 4.04L148.68 7.50L148.68 7.50Q149.15 7.57 149.58 7.80L149.58 7.80L149.58 7.80Q150.01 8.02 150.34 8.37L150.34 8.37L150.34 8.37Q150.66 8.72 150.84 9.16L150.84 9.16L150.84 9.16Q151.02 9.60 151.02 10.10L151.02 10.10L151.02 11.89L150.25 11.89L150.25 10.10L150.25 10.10Q150.25 9.34 149.70 8.79L149.70 8.79L149.70 8.79Q149.15 8.24 148.39 8.24L148.39 8.24L133.42 8.24L133.42 8.24Q132.65 8.24 132.10 8.79L132.10 8.79L132.10 8.79Q131.55 9.34 131.55 10.10L131.55 10.10L131.55 11.89ZM150.66 1.81L150.66 2.58L131.03 2.58L131.03 1.81L150.66 1.81ZM164.39 0.93L165.15 0.93L165.15 5.44L174.75 5.44L174.75 6.21L165.15 6.21L165.15 13.06L174.18 13.06L174.18 13.83L165.15 13.83L165.15 21.83L175.35 21.83L175.35 22.59L154.19 22.59L154.19 21.83L164.39 21.83L164.39 13.83L155.36 13.83L155.36 13.06L164.39 13.06L164.39 6.21L155.98 6.21L157.23 1.60L157.94 1.79L156.96 5.44L164.39 5.44L164.39 0.93ZM184.54 3.06L184.50 2.29L198.71 1.72L198.75 2.48L192.00 2.75L192.00 8.33L199.64 8.33L199.64 9.10L192.00 9.10L192.00 13.30L196.46 13.30L196.46 13.30Q197.37 13.30 198.00 13.92L198.00 13.92L198.00 13.92Q198.63 14.54 198.63 15.45L198.63 15.45L198.63 20.61L198.63 20.61Q198.63 21.04 198.47 21.43L198.47 21.43L198.47 21.43Q198.30 21.83 198.00 22.12L198.00 22.12L198.00 22.12Q197.70 22.42 197.31 22.60L197.31 22.60L197.31 22.60Q196.91 22.78 196.46 22.78L196.46 22.78L186.77 22.78L186.77 22.78Q186.31 22.78 185.92 22.60L185.92 22.60L185.92 22.60Q185.52 22.42 185.23 22.12L185.23 22.12L185.23 22.12Q184.93 21.83 184.76 21.43L184.76 21.43L184.76 21.43Q184.59 21.04 184.59 20.61L184.59 20.61L184.59 15.45L184.59 15.45Q184.59 14.54 185.23 13.92L185.23 13.92L185.23 13.92Q185.86 13.30 186.77 13.30L186.77 13.30L191.23 13.30L191.23 9.10L183.59 9.10L183.59 8.33L191.23 8.33L191.23 2.79L184.54 3.06ZM186.77 22.02L196.46 22.02L196.46 22.02Q197.06 22.02 197.46 21.60L197.46 21.60L197.46 21.60Q197.87 21.18 197.87 20.61L197.87 20.61L197.87 15.45L197.87 15.45Q197.87 14.85 197.46 14.46L197.46 14.46L197.46 14.46Q197.06 14.07 196.46 14.07L196.46 14.07L186.77 14.07L186.77 14.07Q186.17 14.07 185.76 14.46L185.76 14.46L185.76 14.46Q185.36 14.85 185.36 15.45L185.36 15.45L185.36 20.61L185.36 20.61Q185.36 21.18 185.76 21.60L185.76 21.60L185.76 21.60Q186.17 22.02 186.77 22.02L186.77 22.02ZM181.75 14.95L182.44 15.31L178.34 23.00L177.64 22.64L181.75 14.95ZM179.39 1.39L180.15 1.39L180.15 6.02L179.39 6.02L179.39 1.39ZM179.39 8.21L180.15 8.21L180.15 12.80L179.39 12.80L179.39 8.21Z"></path></symbol></defs>     <use id="background" xlink:href="#--crowdsdom--5840f7cb-c2a1-4f2a-931c-f0dd606cdb98" style="fill-opacity:0;" width="100000" height="20000"></use><g><mask id="logo-mask" maskUnits="userSpaceOnUse" x="0" y="0" width="500" height="500"><use xlink:href="#--crowdsdom--0bf54cf55f026f3462e045ee278efe5d" fill="rgb(255, 255, 255)" x="0" y="0" width="500" height="500"></use></mask><rect x="0" y="0" width="500" height="500" style="fill:url(#g1);stroke:url(#g1);stroke-width:0;" mask="url(#logo-mask)"></rect></g></svg>