<?xml version="1.0" encoding="utf-8"?><svg xmlns="http://www.w3.org/2000/svg" xmlns:xlink="http://www.w3.org/1999/xlink" version="1.1" viewBox="0 0 500 500" width="500" height="500"><defs><linearGradient id="g1" x1="0%" y1="0%" x2="100%" y2="100%"><stop offset="0%" stop-color="#ffffff" stop-opacity="1"/><stop offset="100%" stop-color="#ffffff" stop-opacity="1"/></linearGradient><symbol id="--crowdsdom--5840f7cb-c2a1-4f2a-931c-f0dd606cdb98" preserveAspectRatio="none" viewBox="0 0 100 100"> <rect x="0" y="0" width="100" height="100"/> </symbol><symbol id="--crowdsdom--e8a526ff90130ef88259126232b2eeaa" preserveAspectRatio="xMidYMid meet" viewBox="-229 31 500 500"> <use id="icon" xlink:href="#--crowdsdom--d9f72955-de9c-49a0-ac70-f9b548433c00" style="overflow:visible;fill:rgb(255, 255, 255);stroke:rgb(255, 255, 255);stroke-width:0;" transform="matrix(1, 0, 0, 1, -161.5, 235)" width="93" height="93"/><use id="header" xlink:href="#f0dbc710-f98e-48a0-bc64-7656e6f0b1de" style="overflow:visible;fill:rgb(255, 255, 255);stroke:rgb(255, 255, 255);stroke-width:0;" transform="matrix(1, 0, 0, 1, -51.5, 256)" width="255" height="50"/></symbol><symbol id="--crowdsdom--d9f72955-de9c-49a0-ac70-f9b548433c00" preserveAspectRatio="xMaxYMid meet" viewBox="16.440349999999995 0.43504999999999594 66.65230000000001 93.96090000000001"><path d="M68.45 68.714L64.25 90.125 40.125 90.125 34.429 68.714z"/><path d="M45.532,48.833c-0.75-0.333-13.938-3.875-16.5-7s-9.562-4.375-9.562-4.375c12-0.125,17.25,1.562,17.25,1.562 c7.938,0.938,10.031,9.938,10.031,9.938l0,0l3.75,3.125l-0.042-2.5c0,0-1.042-3.542-1-3.833s-0.125-5.083-0.125-5.083 s-1.708-4.333-3.958-6.917s-4.083-6.168,0.958-16.71c0,0,1.75-2.5,2.083-5.292s4.166-7.042,4.166-7.042S64.416,18.666,51.333,37 c0,0-1.177,1.938-1.177,3.719S50.648,48.248,51.25,49l1.594-2.125c0,0,2.031-9,9.969-9.938c0,0,5.25-1.688,17.25-1.562 c0,0-7,1.25-9.562,4.375s-15.75,6.667-16.5,7s-2.438,3.917-2.438,3.917s0.375,8.751,1,10.167l18.425-0.022l-0.737,5.771l-1.62,0.035 l-34.255,0.007h-1.25l-0.583-5.791h19l-0.875-6.667c0,0-0.12-0.965-1.625-2.125l-2.5-2.125L45.532,48.833z"/></symbol><symbol id="f0dbc710-f98e-48a0-bc64-7656e6f0b1de" preserveAspectRatio="xMinYMid meet" viewBox="3.08 10.74 197.19 35.16"><path d="M21.39 38.92L21.39 38.92L21.39 38.92Q21.39 40.36 20.75 41.63L20.75 41.63L20.75 41.63Q20.12 42.90 18.95 43.85L18.95 43.85L18.95 43.85Q17.77 44.80 16.09 45.35L16.09 45.35L16.09 45.35Q14.40 45.90 12.30 45.90L12.30 45.90L12.30 45.90Q10.94 45.90 9.62 45.76L9.62 45.76L9.62 45.76Q8.30 45.63 7.10 45.39L7.10 45.39L7.10 45.39Q5.91 45.14 4.87 44.81L4.87 44.81L4.87 44.81Q3.83 44.48 3.08 44.09L3.08 44.09L3.96 41.36L3.96 41.36Q4.98 41.75 5.87 42.08L5.87 42.08L5.87 42.08Q6.76 42.41 7.74 42.66L7.74 42.66L7.74 42.66Q8.72 42.92 9.88 43.07L9.88 43.07L9.88 43.07Q11.04 43.21 12.55 43.21L12.55 43.21L12.55 43.21Q13.84 43.21 14.87 42.91L14.87 42.91L14.87 42.91Q15.89 42.60 16.60 42.05L16.60 42.05L16.60 42.05Q17.31 41.50 17.69 40.78L17.69 40.78L17.69 40.78Q18.07 40.06 18.07 39.21L18.07 39.21L18.07 39.21Q18.07 38.23 17.70 37.50L17.70 37.50L17.70 37.50Q17.33 36.77 16.55 36.19L16.55 36.19L16.55 36.19Q15.77 35.62 14.58 35.17L14.58 35.17L14.58 35.17Q13.38 34.72 11.72 34.28L11.72 34.28L11.72 34.28Q9.96 33.81 8.47 33.11L8.47 33.11L8.47 33.11Q6.98 32.40 5.88 31.51L5.88 31.51L5.88 31.51Q4.79 30.62 4.17 29.55L4.17 29.55L4.17 29.55Q3.56 28.49 3.56 27.34L3.56 27.34L3.56 27.34Q3.56 25.71 4.16 24.44L4.16 24.44L4.16 24.44Q4.76 23.17 5.91 22.29L5.91 22.29L5.91 22.29Q7.06 21.41 8.72 20.96L8.72 20.96L8.72 20.96Q10.38 20.51 12.50 20.51L12.50 20.51L12.50 20.51Q15.28 20.51 17.32 21.01L17.32 21.01L17.32 21.01Q19.36 21.51 20.51 22.02L20.51 22.02L19.75 24.66L19.75 24.66Q18.97 24.39 18.23 24.12L18.23 24.12L18.23 24.12Q17.48 23.85 16.63 23.65L16.63 23.65L16.63 23.65Q15.77 23.44 14.73 23.32L14.73 23.32L14.73 23.32Q13.70 23.19 12.35 23.19L12.35 23.19L12.35 23.19Q9.52 23.19 8.20 24.21L8.20 24.21L8.20 24.21Q6.88 25.22 6.88 26.95L6.88 26.95L6.88 26.95Q6.88 27.61 7.13 28.28L7.13 28.28L7.13 28.28Q7.37 28.96 7.98 29.58L7.98 29.58L7.98 29.58Q8.59 30.20 9.64 30.74L9.64 30.74L9.64 30.74Q10.69 31.27 12.30 31.69L12.30 31.69L12.30 31.69Q14.70 32.30 16.42 33.08L16.42 33.08L16.42 33.08Q18.14 33.86 19.24 34.78L19.24 34.78L19.24 34.78Q20.34 35.69 20.86 36.74L20.86 36.74L20.86 36.74Q21.39 37.79 21.39 38.92ZM27.93 33.20L27.93 33.20L27.93 33.20Q27.93 30.25 28.70 27.91L28.70 27.91L28.70 27.91Q29.47 25.56 30.91 23.91L30.91 23.91L30.91 23.91Q32.35 22.27 34.45 21.39L34.45 21.39L34.45 21.39Q36.55 20.51 39.18 20.51L39.18 20.51L39.18 20.51Q41.82 20.51 43.99 21.39L43.99 21.39L43.99 21.39Q46.17 22.27 47.72 23.91L47.72 23.91L47.72 23.91Q49.27 25.56 50.13 27.91L50.13 27.91L50.13 27.91Q51.00 30.25 51.00 33.20L51.00 33.20L51.00 33.20Q51.00 36.18 50.13 38.53L50.13 38.53L50.13 38.53Q49.27 40.87 47.72 42.52L47.72 42.52L47.72 42.52Q46.17 44.17 43.99 45.03L43.99 45.03L43.99 45.03Q41.82 45.90 39.18 45.90L39.18 45.90L39.18 45.90Q36.55 45.90 34.45 45.03L34.45 45.03L34.45 45.03Q32.35 44.17 30.91 42.52L30.91 42.52L30.91 42.52Q29.47 40.87 28.70 38.53L28.70 38.53L28.70 38.53Q27.93 36.18 27.93 33.20ZM31.25 33.20L31.25 33.20L31.25 33.20Q31.25 35.79 31.81 37.67L31.81 37.67L31.81 37.67Q32.37 39.55 33.42 40.78L33.42 40.78L33.42 40.78Q34.47 42.02 35.93 42.61L35.93 42.61L35.93 42.61Q37.38 43.21 39.18 43.21L39.18 43.21L39.18 43.21Q41.02 43.21 42.57 42.61L42.57 42.61L42.57 42.61Q44.12 42.02 45.25 40.78L45.25 40.78L45.25 40.78Q46.39 39.55 47.03 37.67L47.03 37.67L47.03 37.67Q47.68 35.79 47.68 33.20L47.68 33.20L47.68 33.20Q47.68 30.62 47.03 28.72L47.03 28.72L47.03 28.72Q46.39 26.83 45.25 25.60L45.25 25.60L45.25 25.60Q44.12 24.37 42.57 23.78L42.57 23.78L42.57 23.78Q41.02 23.19 39.18 23.19L39.18 23.19L39.18 23.19Q37.38 23.19 35.93 23.78L35.93 23.78L35.93 23.78Q34.47 24.37 33.42 25.60L33.42 25.60L33.42 25.60Q32.37 26.83 31.81 28.72L31.81 28.72L31.81 28.72Q31.25 30.62 31.25 33.20ZM55.52 23.68L56.20 21.00L60.30 21.00L60.30 19.19L60.30 19.19Q60.30 16.94 60.83 15.34L60.83 15.34L60.83 15.34Q61.35 13.75 62.35 12.72L62.35 12.72L62.35 12.72Q63.35 11.69 64.79 11.22L64.79 11.22L64.79 11.22Q66.24 10.74 68.07 10.74L68.07 10.74L68.07 10.74Q69.34 10.74 70.65 10.96L70.65 10.96L70.65 10.96Q71.97 11.18 72.90 11.47L72.90 11.47L72.83 13.96L72.83 13.96Q72.46 13.87 71.94 13.77L71.94 13.77L71.94 13.77Q71.41 13.67 70.83 13.60L70.83 13.60L70.83 13.60Q70.24 13.53 69.63 13.48L69.63 13.48L69.63 13.48Q69.02 13.43 68.43 13.43L68.43 13.43L68.43 13.43Q67.14 13.43 66.22 13.73L66.22 13.73L66.22 13.73Q65.31 14.04 64.73 14.72L64.73 14.72L64.73 14.72Q64.16 15.41 63.89 16.50L63.89 16.50L63.89 16.50Q63.62 17.60 63.62 19.19L63.62 19.19L63.62 21.00L70.56 21.00L70.56 23.68L63.62 23.68L63.62 45.41L60.30 45.41L60.30 23.68L55.52 23.68ZM74.46 23.68L75.15 21.00L79.15 21.00L79.15 14.65L82.47 14.16L82.47 21.00L90.14 21.00L90.14 23.68L82.47 23.68L82.47 38.43L82.47 38.43Q82.47 39.79 82.69 40.71L82.69 40.71L82.69 40.71Q82.91 41.63 83.39 42.18L83.39 42.18L83.39 42.18Q83.86 42.72 84.59 42.97L84.59 42.97L84.59 42.97Q85.33 43.21 86.33 43.21L86.33 43.21L86.33 43.21Q86.94 43.21 87.59 43.16L87.59 43.16L87.59 43.16Q88.23 43.12 88.84 43.04L88.84 43.04L88.84 43.04Q89.45 42.97 89.99 42.88L89.99 42.88L89.99 42.88Q90.53 42.80 90.94 42.72L90.94 42.72L91.19 45.26L91.19 45.26Q90.28 45.53 88.94 45.72L88.94 45.72L88.94 45.72Q87.60 45.90 86.33 45.90L86.33 45.90L86.33 45.90Q84.57 45.90 83.23 45.59L83.23 45.59L83.23 45.59Q81.88 45.29 80.98 44.47L80.98 44.47L80.98 44.47Q80.08 43.65 79.61 42.20L79.61 42.20L79.61 42.20Q79.15 40.75 79.15 38.43L79.15 38.43L79.15 23.68L74.46 23.68ZM120.63 40.67L125.59 21.00L129.39 21.00L122.22 45.41L119.48 45.41L112.30 26.95L112.21 25.93L112.11 26.95L104.83 45.41L102.12 45.41L95.02 21.00L98.83 21.00L103.66 40.75L111.21 21.00L113.18 21.00L120.63 40.67ZM136.79 45.41L136.79 21.00L140.14 21.00L140.14 45.41L136.79 45.41ZM136.21 15.04L136.21 11.18L140.50 11.18L140.50 15.04L136.21 15.04ZM150.59 45.41L150.59 21.00L153.64 21.00L153.86 23.75L153.86 23.75Q155.69 22.14 157.89 21.33L157.89 21.33L157.89 21.33Q160.08 20.51 162.60 20.51L162.60 20.51L162.60 20.51Q164.77 20.51 166.30 21.03L166.30 21.03L166.30 21.03Q167.82 21.56 168.77 22.63L168.77 22.63L168.77 22.63Q169.73 23.71 170.15 25.35L170.15 25.35L170.15 25.35Q170.58 27.00 170.58 29.25L170.58 29.25L170.58 45.41L167.26 45.41L167.26 29.25L167.26 29.25Q167.26 27.54 166.92 26.38L166.92 26.38L166.92 26.38Q166.58 25.22 165.89 24.51L165.89 24.51L165.89 24.51Q165.21 23.80 164.22 23.50L164.22 23.50L164.22 23.50Q163.23 23.19 161.91 23.19L161.91 23.19L161.91 23.19Q159.55 23.19 157.54 24.02L157.54 24.02L157.54 24.02Q155.54 24.85 153.91 26.17L153.91 26.17L153.91 45.41L150.59 45.41ZM200.27 45.41L196.95 45.41L196.95 43.63L196.95 43.63Q196.22 44.19 195.47 44.60L195.47 44.60L195.47 44.60Q194.73 45.02 193.86 45.31L193.86 45.31L193.86 45.31Q192.99 45.61 191.93 45.75L191.93 45.75L191.93 45.75Q190.87 45.90 189.53 45.90L189.53 45.90L189.53 45.90Q187.11 45.90 185.22 44.98L185.22 44.98L185.22 44.98Q183.33 44.07 182.02 42.40L182.02 42.40L182.02 42.40Q180.71 40.72 180.04 38.38L180.04 38.38L180.04 38.38Q179.37 36.04 179.37 33.15L179.37 33.15L179.37 33.15Q179.37 30.27 180.04 27.94L180.04 27.94L180.04 27.94Q180.71 25.61 182.02 23.96L182.02 23.96L182.02 23.96Q183.33 22.31 185.22 21.41L185.22 21.41L185.22 21.41Q187.11 20.51 189.53 20.51L189.53 20.51L189.53 20.51Q190.82 20.51 191.87 20.65L191.87 20.65L191.87 20.65Q192.92 20.80 193.80 21.08L193.80 21.08L193.80 21.08Q194.68 21.36 195.45 21.79L195.45 21.79L195.45 21.79Q196.22 22.22 196.95 22.78L196.95 22.78L196.95 11.23L200.27 11.23L200.27 45.41ZM182.69 33.15L182.69 33.15L182.69 33.15Q182.69 35.60 183.14 37.46L183.14 37.46L183.14 37.46Q183.59 39.33 184.55 40.61L184.55 40.61L184.55 40.61Q185.50 41.89 187.01 42.55L187.01 42.55L187.01 42.55Q188.53 43.21 190.65 43.21L190.65 43.21L190.65 43.21Q192.46 43.21 194.07 42.68L194.07 42.68L194.07 42.68Q195.68 42.14 196.95 41.28L196.95 41.28L196.95 25.12L196.95 25.12Q195.68 24.29 194.07 23.74L194.07 23.74L194.07 23.74Q192.46 23.19 190.65 23.19L190.65 23.19L190.65 23.19Q188.53 23.19 187.01 23.84L187.01 23.84L187.01 23.84Q185.50 24.49 184.55 25.74L184.55 25.74L184.55 25.74Q183.59 27.00 183.14 28.86L183.14 28.86L183.14 28.86Q182.69 30.71 182.69 33.15Z"/></symbol></defs> <use id="background" xlink:href="#--crowdsdom--5840f7cb-c2a1-4f2a-931c-f0dd606cdb98" style="fill-opacity:0;" width="100000" height="20000"/><g><mask id="logo-mask" maskUnits="userSpaceOnUse" x="0" y="0" width="500" height="500"><use xlink:href="#--crowdsdom--e8a526ff90130ef88259126232b2eeaa" fill="rgb(255, 255, 255)" x="0" y="0" width="500" height="500"/></mask><rect x="0" y="0" width="500" height="500" style="fill:url(#g1);stroke:url(#g1);stroke-width:0;" mask="url(#logo-mask)"/></g></svg>